<?xml version="1.0" encoding="utf-8" standalone="no"?>
<!DOCTYPE svg PUBLIC "-//W3C//DTD SVG 1.1//EN"
  "http://www.w3.org/Graphics/SVG/1.1/DTD/svg11.dtd">
<svg xmlns:xlink="http://www.w3.org/1999/xlink" width="1080pt" height="288pt" viewBox="0 0 1080 288" xmlns="http://www.w3.org/2000/svg" version="1.1">
 <metadata>
  <rdf:RDF xmlns:dc="http://purl.org/dc/elements/1.1/" xmlns:cc="http://creativecommons.org/ns#" xmlns:rdf="http://www.w3.org/1999/02/22-rdf-syntax-ns#">
   <cc:Work>
    <dc:type rdf:resource="http://purl.org/dc/dcmitype/StillImage"/>
    <dc:date>2025-08-06T16:07:12.820370</dc:date>
    <dc:format>image/svg+xml</dc:format>
    <dc:creator>
     <cc:Agent>
      <dc:title>Matplotlib v3.10.0, https://matplotlib.org/</dc:title>
     </cc:Agent>
    </dc:creator>
   </cc:Work>
  </rdf:RDF>
 </metadata>
 <defs>
  <style type="text/css">*{stroke-linejoin: round; stroke-linecap: butt}</style>
 </defs>
 <g id="figure_1">
  <g id="patch_1">
   <path d="M 0 288 
L 1080 288 
L 1080 0 
L 0 0 
z
" style="fill: #ffffff"/>
  </g>
  <g id="axes_1">
   <g id="patch_2">
    <path d="M 70.164925 207.602409 
L 1065.744 207.602409 
L 1065.744 14.256 
L 70.164925 14.256 
z
" style="fill: #ffffff"/>
   </g>
   <g id="matplotlib.axis_1">
    <g id="xtick_1">
     <g id="text_1">
      <!-- $\mathrm{CP_{4}^{Re}}$ -->
      <g style="fill: #262626" transform="translate(86.502669 248.384813) rotate(-45) scale(0.14 -0.14)">
       <defs>
        <path id="DejaVuSans-43" d="M 4122 4306 
L 4122 3641 
Q 3803 3938 3442 4084 
Q 3081 4231 2675 4231 
Q 1875 4231 1450 3742 
Q 1025 3253 1025 2328 
Q 1025 1406 1450 917 
Q 1875 428 2675 428 
Q 3081 428 3442 575 
Q 3803 722 4122 1019 
L 4122 359 
Q 3791 134 3420 21 
Q 3050 -91 2638 -91 
Q 1578 -91 968 557 
Q 359 1206 359 2328 
Q 359 3453 968 4101 
Q 1578 4750 2638 4750 
Q 3056 4750 3426 4639 
Q 3797 4528 4122 4306 
z
" transform="scale(0.015625)"/>
        <path id="DejaVuSans-50" d="M 1259 4147 
L 1259 2394 
L 2053 2394 
Q 2494 2394 2734 2622 
Q 2975 2850 2975 3272 
Q 2975 3691 2734 3919 
Q 2494 4147 2053 4147 
L 1259 4147 
z
M 628 4666 
L 2053 4666 
Q 2838 4666 3239 4311 
Q 3641 3956 3641 3272 
Q 3641 2581 3239 2228 
Q 2838 1875 2053 1875 
L 1259 1875 
L 1259 0 
L 628 0 
L 628 4666 
z
" transform="scale(0.015625)"/>
        <path id="DejaVuSans-52" d="M 2841 2188 
Q 3044 2119 3236 1894 
Q 3428 1669 3622 1275 
L 4263 0 
L 3584 0 
L 2988 1197 
Q 2756 1666 2539 1819 
Q 2322 1972 1947 1972 
L 1259 1972 
L 1259 0 
L 628 0 
L 628 4666 
L 2053 4666 
Q 2853 4666 3247 4331 
Q 3641 3997 3641 3322 
Q 3641 2881 3436 2590 
Q 3231 2300 2841 2188 
z
M 1259 4147 
L 1259 2491 
L 2053 2491 
Q 2509 2491 2742 2702 
Q 2975 2913 2975 3322 
Q 2975 3731 2742 3939 
Q 2509 4147 2053 4147 
L 1259 4147 
z
" transform="scale(0.015625)"/>
        <path id="DejaVuSans-65" d="M 3597 1894 
L 3597 1613 
L 953 1613 
Q 991 1019 1311 708 
Q 1631 397 2203 397 
Q 2534 397 2845 478 
Q 3156 559 3463 722 
L 3463 178 
Q 3153 47 2828 -22 
Q 2503 -91 2169 -91 
Q 1331 -91 842 396 
Q 353 884 353 1716 
Q 353 2575 817 3079 
Q 1281 3584 2069 3584 
Q 2775 3584 3186 3129 
Q 3597 2675 3597 1894 
z
M 3022 2063 
Q 3016 2534 2758 2815 
Q 2500 3097 2075 3097 
Q 1594 3097 1305 2825 
Q 1016 2553 972 2059 
L 3022 2063 
z
" transform="scale(0.015625)"/>
        <path id="DejaVuSans-34" d="M 2419 4116 
L 825 1625 
L 2419 1625 
L 2419 4116 
z
M 2253 4666 
L 3047 4666 
L 3047 1625 
L 3713 1625 
L 3713 1100 
L 3047 1100 
L 3047 0 
L 2419 0 
L 2419 1100 
L 313 1100 
L 313 1709 
L 2253 4666 
z
" transform="scale(0.015625)"/>
       </defs>
       <use xlink:href="#DejaVuSans-43" transform="translate(0 0.684375)"/>
       <use xlink:href="#DejaVuSans-50" transform="translate(69.824219 0.684375)"/>
       <use xlink:href="#DejaVuSans-52" transform="translate(131.083984 38.965625) scale(0.7)"/>
       <use xlink:href="#DejaVuSans-65" transform="translate(179.72168 38.965625) scale(0.7)"/>
       <use xlink:href="#DejaVuSans-34" transform="translate(131.083984 -26.659375) scale(0.7)"/>
      </g>
     </g>
    </g>
    <g id="xtick_2">
     <g id="text_2">
      <!-- $\mathrm{CP_{4}^{Im}}$ -->
      <g style="fill: #262626" transform="translate(169.962567 247.889838) rotate(-45) scale(0.14 -0.14)">
       <defs>
        <path id="DejaVuSans-49" d="M 628 4666 
L 1259 4666 
L 1259 0 
L 628 0 
L 628 4666 
z
" transform="scale(0.015625)"/>
        <path id="DejaVuSans-6d" d="M 3328 2828 
Q 3544 3216 3844 3400 
Q 4144 3584 4550 3584 
Q 5097 3584 5394 3201 
Q 5691 2819 5691 2113 
L 5691 0 
L 5113 0 
L 5113 2094 
Q 5113 2597 4934 2840 
Q 4756 3084 4391 3084 
Q 3944 3084 3684 2787 
Q 3425 2491 3425 1978 
L 3425 0 
L 2847 0 
L 2847 2094 
Q 2847 2600 2669 2842 
Q 2491 3084 2119 3084 
Q 1678 3084 1418 2786 
Q 1159 2488 1159 1978 
L 1159 0 
L 581 0 
L 581 3500 
L 1159 3500 
L 1159 2956 
Q 1356 3278 1631 3431 
Q 1906 3584 2284 3584 
Q 2666 3584 2933 3390 
Q 3200 3197 3328 2828 
z
" transform="scale(0.015625)"/>
       </defs>
       <use xlink:href="#DejaVuSans-43" transform="translate(0 0.684375)"/>
       <use xlink:href="#DejaVuSans-50" transform="translate(69.824219 0.684375)"/>
       <use xlink:href="#DejaVuSans-49" transform="translate(131.083984 38.965625) scale(0.7)"/>
       <use xlink:href="#DejaVuSans-6d" transform="translate(149.191016 38.965625) scale(0.7)"/>
       <use xlink:href="#DejaVuSans-34" transform="translate(131.083984 -26.659375) scale(0.7)"/>
      </g>
     </g>
    </g>
    <g id="xtick_3">
     <g id="text_3">
      <!-- $\mathrm{CP_{1}^{Im}}$ -->
      <g style="fill: #262626" transform="translate(252.92749 247.889838) rotate(-45) scale(0.14 -0.14)">
       <defs>
        <path id="DejaVuSans-31" d="M 794 531 
L 1825 531 
L 1825 4091 
L 703 3866 
L 703 4441 
L 1819 4666 
L 2450 4666 
L 2450 531 
L 3481 531 
L 3481 0 
L 794 0 
L 794 531 
z
" transform="scale(0.015625)"/>
       </defs>
       <use xlink:href="#DejaVuSans-43" transform="translate(0 0.684375)"/>
       <use xlink:href="#DejaVuSans-50" transform="translate(69.824219 0.684375)"/>
       <use xlink:href="#DejaVuSans-49" transform="translate(131.083984 38.965625) scale(0.7)"/>
       <use xlink:href="#DejaVuSans-6d" transform="translate(149.191016 38.965625) scale(0.7)"/>
       <use xlink:href="#DejaVuSans-31" transform="translate(131.083984 -26.659375) scale(0.7)"/>
      </g>
     </g>
    </g>
    <g id="xtick_4">
     <g id="text_4">
      <!-- $\mathrm{CP_{1}^{Re}}$ -->
      <g style="fill: #262626" transform="translate(335.397438 248.384813) rotate(-45) scale(0.14 -0.14)">
       <use xlink:href="#DejaVuSans-43" transform="translate(0 0.684375)"/>
       <use xlink:href="#DejaVuSans-50" transform="translate(69.824219 0.684375)"/>
       <use xlink:href="#DejaVuSans-52" transform="translate(131.083984 38.965625) scale(0.7)"/>
       <use xlink:href="#DejaVuSans-65" transform="translate(179.72168 38.965625) scale(0.7)"/>
       <use xlink:href="#DejaVuSans-31" transform="translate(131.083984 -26.659375) scale(0.7)"/>
      </g>
     </g>
    </g>
    <g id="xtick_5">
     <g id="text_5">
      <!-- $\mathrm{Real_{3}}$ -->
      <g style="fill: #262626" transform="translate(414.909912 251.070051) rotate(-45) scale(0.14 -0.14)">
       <defs>
        <path id="DejaVuSans-61" d="M 2194 1759 
Q 1497 1759 1228 1600 
Q 959 1441 959 1056 
Q 959 750 1161 570 
Q 1363 391 1709 391 
Q 2188 391 2477 730 
Q 2766 1069 2766 1631 
L 2766 1759 
L 2194 1759 
z
M 3341 1997 
L 3341 0 
L 2766 0 
L 2766 531 
Q 2569 213 2275 61 
Q 1981 -91 1556 -91 
Q 1019 -91 701 211 
Q 384 513 384 1019 
Q 384 1609 779 1909 
Q 1175 2209 1959 2209 
L 2766 2209 
L 2766 2266 
Q 2766 2663 2505 2880 
Q 2244 3097 1772 3097 
Q 1472 3097 1187 3025 
Q 903 2953 641 2809 
L 641 3341 
Q 956 3463 1253 3523 
Q 1550 3584 1831 3584 
Q 2591 3584 2966 3190 
Q 3341 2797 3341 1997 
z
" transform="scale(0.015625)"/>
        <path id="DejaVuSans-6c" d="M 603 4863 
L 1178 4863 
L 1178 0 
L 603 0 
L 603 4863 
z
" transform="scale(0.015625)"/>
        <path id="DejaVuSans-33" d="M 2597 2516 
Q 3050 2419 3304 2112 
Q 3559 1806 3559 1356 
Q 3559 666 3084 287 
Q 2609 -91 1734 -91 
Q 1441 -91 1130 -33 
Q 819 25 488 141 
L 488 750 
Q 750 597 1062 519 
Q 1375 441 1716 441 
Q 2309 441 2620 675 
Q 2931 909 2931 1356 
Q 2931 1769 2642 2001 
Q 2353 2234 1838 2234 
L 1294 2234 
L 1294 2753 
L 1863 2753 
Q 2328 2753 2575 2939 
Q 2822 3125 2822 3475 
Q 2822 3834 2567 4026 
Q 2313 4219 1838 4219 
Q 1578 4219 1281 4162 
Q 984 4106 628 3988 
L 628 4550 
Q 988 4650 1302 4700 
Q 1616 4750 1894 4750 
Q 2613 4750 3031 4423 
Q 3450 4097 3450 3541 
Q 3450 3153 3228 2886 
Q 3006 2619 2597 2516 
z
" transform="scale(0.015625)"/>
       </defs>
       <use xlink:href="#DejaVuSans-52" transform="translate(0 0.015625)"/>
       <use xlink:href="#DejaVuSans-65" transform="translate(69.482422 0.015625)"/>
       <use xlink:href="#DejaVuSans-61" transform="translate(131.005859 0.015625)"/>
       <use xlink:href="#DejaVuSans-6c" transform="translate(192.285156 0.015625)"/>
       <use xlink:href="#DejaVuSans-33" transform="translate(221.025391 -16.390625) scale(0.7)"/>
      </g>
     </g>
    </g>
    <g id="xtick_6">
     <g id="text_6">
      <!-- $\mathrm{CP_{3}^{Im}}$ -->
      <g style="fill: #262626" transform="translate(501.723264 247.889838) rotate(-45) scale(0.14 -0.14)">
       <use xlink:href="#DejaVuSans-43" transform="translate(0 0.684375)"/>
       <use xlink:href="#DejaVuSans-50" transform="translate(69.824219 0.684375)"/>
       <use xlink:href="#DejaVuSans-49" transform="translate(131.083984 38.965625) scale(0.7)"/>
       <use xlink:href="#DejaVuSans-6d" transform="translate(149.191016 38.965625) scale(0.7)"/>
       <use xlink:href="#DejaVuSans-33" transform="translate(131.083984 -26.659375) scale(0.7)"/>
      </g>
     </g>
    </g>
    <g id="xtick_7">
     <g id="text_7">
      <!-- $\mathrm{Real_{1}}$ -->
      <g style="fill: #262626" transform="translate(580.839758 250.971056) rotate(-45) scale(0.14 -0.14)">
       <use xlink:href="#DejaVuSans-52" transform="translate(0 0.015625)"/>
       <use xlink:href="#DejaVuSans-65" transform="translate(69.482422 0.015625)"/>
       <use xlink:href="#DejaVuSans-61" transform="translate(131.005859 0.015625)"/>
       <use xlink:href="#DejaVuSans-6c" transform="translate(192.285156 0.015625)"/>
       <use xlink:href="#DejaVuSans-31" transform="translate(221.025391 -16.390625) scale(0.7)"/>
      </g>
     </g>
    </g>
    <g id="xtick_8">
     <g id="text_8">
      <!-- $\mathrm{CP_{3}^{Re}}$ -->
      <g style="fill: #262626" transform="translate(667.158135 248.384813) rotate(-45) scale(0.14 -0.14)">
       <use xlink:href="#DejaVuSans-43" transform="translate(0 0.684375)"/>
       <use xlink:href="#DejaVuSans-50" transform="translate(69.824219 0.684375)"/>
       <use xlink:href="#DejaVuSans-52" transform="translate(131.083984 38.965625) scale(0.7)"/>
       <use xlink:href="#DejaVuSans-65" transform="translate(179.72168 38.965625) scale(0.7)"/>
       <use xlink:href="#DejaVuSans-33" transform="translate(131.083984 -26.659375) scale(0.7)"/>
      </g>
     </g>
    </g>
    <g id="xtick_9">
     <g id="text_9">
      <!-- $\mathrm{Real_{4}}$ -->
      <g style="fill: #262626" transform="translate(746.769604 250.971056) rotate(-45) scale(0.14 -0.14)">
       <use xlink:href="#DejaVuSans-52" transform="translate(0 0.015625)"/>
       <use xlink:href="#DejaVuSans-65" transform="translate(69.482422 0.015625)"/>
       <use xlink:href="#DejaVuSans-61" transform="translate(131.005859 0.015625)"/>
       <use xlink:href="#DejaVuSans-6c" transform="translate(192.285156 0.015625)"/>
       <use xlink:href="#DejaVuSans-34" transform="translate(221.025391 -16.390625) scale(0.7)"/>
      </g>
     </g>
    </g>
    <g id="xtick_10">
     <g id="text_10">
      <!-- $\mathrm{CP_{2}^{Im}}$ -->
      <g style="fill: #262626" transform="translate(833.68195 247.889838) rotate(-45) scale(0.14 -0.14)">
       <defs>
        <path id="DejaVuSans-32" d="M 1228 531 
L 3431 531 
L 3431 0 
L 469 0 
L 469 531 
Q 828 903 1448 1529 
Q 2069 2156 2228 2338 
Q 2531 2678 2651 2914 
Q 2772 3150 2772 3378 
Q 2772 3750 2511 3984 
Q 2250 4219 1831 4219 
Q 1534 4219 1204 4116 
Q 875 4013 500 3803 
L 500 4441 
Q 881 4594 1212 4672 
Q 1544 4750 1819 4750 
Q 2544 4750 2975 4387 
Q 3406 4025 3406 3419 
Q 3406 3131 3298 2873 
Q 3191 2616 2906 2266 
Q 2828 2175 2409 1742 
Q 1991 1309 1228 531 
z
" transform="scale(0.015625)"/>
       </defs>
       <use xlink:href="#DejaVuSans-43" transform="translate(0 0.684375)"/>
       <use xlink:href="#DejaVuSans-50" transform="translate(69.824219 0.684375)"/>
       <use xlink:href="#DejaVuSans-49" transform="translate(131.083984 38.965625) scale(0.7)"/>
       <use xlink:href="#DejaVuSans-6d" transform="translate(149.191016 38.965625) scale(0.7)"/>
       <use xlink:href="#DejaVuSans-32" transform="translate(131.083984 -26.659375) scale(0.7)"/>
      </g>
     </g>
    </g>
    <g id="xtick_11">
     <g id="text_11">
      <!-- $\mathrm{CP_{2}^{Re}}$ -->
      <g style="fill: #262626" transform="translate(916.151898 248.384813) rotate(-45) scale(0.14 -0.14)">
       <use xlink:href="#DejaVuSans-43" transform="translate(0 0.684375)"/>
       <use xlink:href="#DejaVuSans-50" transform="translate(69.824219 0.684375)"/>
       <use xlink:href="#DejaVuSans-52" transform="translate(131.083984 38.965625) scale(0.7)"/>
       <use xlink:href="#DejaVuSans-65" transform="translate(179.72168 38.965625) scale(0.7)"/>
       <use xlink:href="#DejaVuSans-32" transform="translate(131.083984 -26.659375) scale(0.7)"/>
      </g>
     </g>
    </g>
    <g id="xtick_12">
     <g id="text_12">
      <!-- $\mathrm{Real_{2}}$ -->
      <g style="fill: #262626" transform="translate(995.664373 250.971056) rotate(-45) scale(0.14 -0.14)">
       <use xlink:href="#DejaVuSans-52" transform="translate(0 0.015625)"/>
       <use xlink:href="#DejaVuSans-65" transform="translate(69.482422 0.015625)"/>
       <use xlink:href="#DejaVuSans-61" transform="translate(131.005859 0.015625)"/>
       <use xlink:href="#DejaVuSans-6c" transform="translate(192.285156 0.015625)"/>
       <use xlink:href="#DejaVuSans-32" transform="translate(221.025391 -16.390625) scale(0.7)"/>
      </g>
     </g>
    </g>
    <g id="text_13">
     <!-- Mode -->
     <g style="fill: #262626" transform="translate(547.944462 268.490076) scale(0.16 -0.16)">
      <defs>
       <path id="ArialMT-4d" d="M 475 0 
L 475 4581 
L 1388 4581 
L 2472 1338 
Q 2622 884 2691 659 
Q 2769 909 2934 1394 
L 4031 4581 
L 4847 4581 
L 4847 0 
L 4263 0 
L 4263 3834 
L 2931 0 
L 2384 0 
L 1059 3900 
L 1059 0 
L 475 0 
z
" transform="scale(0.015625)"/>
       <path id="ArialMT-6f" d="M 213 1659 
Q 213 2581 725 3025 
Q 1153 3394 1769 3394 
Q 2453 3394 2887 2945 
Q 3322 2497 3322 1706 
Q 3322 1066 3130 698 
Q 2938 331 2570 128 
Q 2203 -75 1769 -75 
Q 1072 -75 642 372 
Q 213 819 213 1659 
z
M 791 1659 
Q 791 1022 1069 705 
Q 1347 388 1769 388 
Q 2188 388 2466 706 
Q 2744 1025 2744 1678 
Q 2744 2294 2464 2611 
Q 2184 2928 1769 2928 
Q 1347 2928 1069 2612 
Q 791 2297 791 1659 
z
" transform="scale(0.015625)"/>
       <path id="ArialMT-64" d="M 2575 0 
L 2575 419 
Q 2259 -75 1647 -75 
Q 1250 -75 917 144 
Q 584 363 401 755 
Q 219 1147 219 1656 
Q 219 2153 384 2558 
Q 550 2963 881 3178 
Q 1213 3394 1622 3394 
Q 1922 3394 2156 3267 
Q 2391 3141 2538 2938 
L 2538 4581 
L 3097 4581 
L 3097 0 
L 2575 0 
z
M 797 1656 
Q 797 1019 1065 703 
Q 1334 388 1700 388 
Q 2069 388 2326 689 
Q 2584 991 2584 1609 
Q 2584 2291 2321 2609 
Q 2059 2928 1675 2928 
Q 1300 2928 1048 2622 
Q 797 2316 797 1656 
z
" transform="scale(0.015625)"/>
       <path id="ArialMT-65" d="M 2694 1069 
L 3275 997 
Q 3138 488 2766 206 
Q 2394 -75 1816 -75 
Q 1088 -75 661 373 
Q 234 822 234 1631 
Q 234 2469 665 2931 
Q 1097 3394 1784 3394 
Q 2450 3394 2872 2941 
Q 3294 2488 3294 1666 
Q 3294 1616 3291 1516 
L 816 1516 
Q 847 969 1125 678 
Q 1403 388 1819 388 
Q 2128 388 2347 550 
Q 2566 713 2694 1069 
z
M 847 1978 
L 2700 1978 
Q 2663 2397 2488 2606 
Q 2219 2931 1791 2931 
Q 1403 2931 1139 2672 
Q 875 2413 847 1978 
z
" transform="scale(0.015625)"/>
      </defs>
      <use xlink:href="#ArialMT-4d"/>
      <use xlink:href="#ArialMT-6f" transform="translate(83.300781 0)"/>
      <use xlink:href="#ArialMT-64" transform="translate(138.916016 0)"/>
      <use xlink:href="#ArialMT-65" transform="translate(194.53125 0)"/>
     </g>
    </g>
   </g>
   <g id="matplotlib.axis_2">
    <g id="ytick_1">
     <g id="text_14">
      <!-- $\mathdefault{10^{-5}}$ -->
      <g style="fill: #262626" transform="translate(32.944925 214.751159) scale(0.14 -0.14)">
       <defs>
        <path id="ArialMT-31" d="M 2384 0 
L 1822 0 
L 1822 3584 
Q 1619 3391 1289 3197 
Q 959 3003 697 2906 
L 697 3450 
Q 1169 3672 1522 3987 
Q 1875 4303 2022 4600 
L 2384 4600 
L 2384 0 
z
" transform="scale(0.015625)"/>
        <path id="ArialMT-30" d="M 266 2259 
Q 266 3072 433 3567 
Q 600 4063 929 4331 
Q 1259 4600 1759 4600 
Q 2128 4600 2406 4451 
Q 2684 4303 2865 4023 
Q 3047 3744 3150 3342 
Q 3253 2941 3253 2259 
Q 3253 1453 3087 958 
Q 2922 463 2592 192 
Q 2263 -78 1759 -78 
Q 1097 -78 719 397 
Q 266 969 266 2259 
z
M 844 2259 
Q 844 1131 1108 757 
Q 1372 384 1759 384 
Q 2147 384 2411 759 
Q 2675 1134 2675 2259 
Q 2675 3391 2411 3762 
Q 2147 4134 1753 4134 
Q 1366 4134 1134 3806 
Q 844 3388 844 2259 
z
" transform="scale(0.015625)"/>
        <path id="ArialMT-2212" d="M 3381 1997 
L 356 1997 
L 356 2522 
L 3381 2522 
L 3381 1997 
z
" transform="scale(0.015625)"/>
        <path id="ArialMT-35" d="M 266 1200 
L 856 1250 
Q 922 819 1161 601 
Q 1400 384 1738 384 
Q 2144 384 2425 690 
Q 2706 997 2706 1503 
Q 2706 1984 2436 2262 
Q 2166 2541 1728 2541 
Q 1456 2541 1237 2417 
Q 1019 2294 894 2097 
L 366 2166 
L 809 4519 
L 3088 4519 
L 3088 3981 
L 1259 3981 
L 1013 2750 
Q 1425 3038 1878 3038 
Q 2478 3038 2890 2622 
Q 3303 2206 3303 1553 
Q 3303 931 2941 478 
Q 2500 -78 1738 -78 
Q 1113 -78 717 272 
Q 322 622 266 1200 
z
" transform="scale(0.015625)"/>
       </defs>
       <use xlink:href="#ArialMT-31" transform="translate(0 0.879688)"/>
       <use xlink:href="#ArialMT-30" transform="translate(55.615234 0.879688)"/>
       <use xlink:href="#ArialMT-2212" transform="translate(112.972813 70.573438) scale(0.7)"/>
       <use xlink:href="#ArialMT-35" transform="translate(153.851719 70.573438) scale(0.7)"/>
      </g>
     </g>
    </g>
    <g id="ytick_2">
     <g id="text_15">
      <!-- $\mathdefault{10^{-3}}$ -->
      <g style="fill: #262626" transform="translate(32.944925 163.104355) scale(0.14 -0.14)">
       <defs>
        <path id="ArialMT-33" d="M 269 1209 
L 831 1284 
Q 928 806 1161 595 
Q 1394 384 1728 384 
Q 2125 384 2398 659 
Q 2672 934 2672 1341 
Q 2672 1728 2419 1979 
Q 2166 2231 1775 2231 
Q 1616 2231 1378 2169 
L 1441 2663 
Q 1497 2656 1531 2656 
Q 1891 2656 2178 2843 
Q 2466 3031 2466 3422 
Q 2466 3731 2256 3934 
Q 2047 4138 1716 4138 
Q 1388 4138 1169 3931 
Q 950 3725 888 3313 
L 325 3413 
Q 428 3978 793 4289 
Q 1159 4600 1703 4600 
Q 2078 4600 2393 4439 
Q 2709 4278 2876 4000 
Q 3044 3722 3044 3409 
Q 3044 3113 2884 2869 
Q 2725 2625 2413 2481 
Q 2819 2388 3044 2092 
Q 3269 1797 3269 1353 
Q 3269 753 2831 336 
Q 2394 -81 1725 -81 
Q 1122 -81 723 278 
Q 325 638 269 1209 
z
" transform="scale(0.015625)"/>
       </defs>
       <use xlink:href="#ArialMT-31" transform="translate(0 0.99375)"/>
       <use xlink:href="#ArialMT-30" transform="translate(55.615234 0.99375)"/>
       <use xlink:href="#ArialMT-2212" transform="translate(112.972813 70.6875) scale(0.7)"/>
       <use xlink:href="#ArialMT-33" transform="translate(153.851719 70.6875) scale(0.7)"/>
      </g>
     </g>
    </g>
    <g id="ytick_3">
     <g id="text_16">
      <!-- $\mathdefault{10^{-1}}$ -->
      <g style="fill: #262626" transform="translate(32.944925 111.38755) scale(0.14 -0.14)">
       <use xlink:href="#ArialMT-31" transform="translate(0 0.99375)"/>
       <use xlink:href="#ArialMT-30" transform="translate(55.615234 0.99375)"/>
       <use xlink:href="#ArialMT-2212" transform="translate(112.972813 70.6875) scale(0.7)"/>
       <use xlink:href="#ArialMT-31" transform="translate(153.851719 70.6875) scale(0.7)"/>
      </g>
     </g>
    </g>
    <g id="ytick_4">
     <g id="text_17">
      <!-- $\mathdefault{10^{1}}$ -->
      <g style="fill: #262626" transform="translate(38.684925 59.670746) scale(0.14 -0.14)">
       <use xlink:href="#ArialMT-31" transform="translate(0 0.99375)"/>
       <use xlink:href="#ArialMT-30" transform="translate(55.615234 0.99375)"/>
       <use xlink:href="#ArialMT-31" transform="translate(112.972813 70.6875) scale(0.7)"/>
      </g>
     </g>
    </g>
    <g id="text_18">
     <!-- Variance of $\omega$ -->
     <g style="fill: #262626" transform="translate(25.764925 160.369205) rotate(-90) scale(0.16 -0.16)">
      <defs>
       <path id="ArialMT-56" d="M 1803 0 
L 28 4581 
L 684 4581 
L 1875 1253 
Q 2019 853 2116 503 
Q 2222 878 2363 1253 
L 3600 4581 
L 4219 4581 
L 2425 0 
L 1803 0 
z
" transform="scale(0.015625)"/>
       <path id="ArialMT-61" d="M 2588 409 
Q 2275 144 1986 34 
Q 1697 -75 1366 -75 
Q 819 -75 525 192 
Q 231 459 231 875 
Q 231 1119 342 1320 
Q 453 1522 633 1644 
Q 813 1766 1038 1828 
Q 1203 1872 1538 1913 
Q 2219 1994 2541 2106 
Q 2544 2222 2544 2253 
Q 2544 2597 2384 2738 
Q 2169 2928 1744 2928 
Q 1347 2928 1158 2789 
Q 969 2650 878 2297 
L 328 2372 
Q 403 2725 575 2942 
Q 747 3159 1072 3276 
Q 1397 3394 1825 3394 
Q 2250 3394 2515 3294 
Q 2781 3194 2906 3042 
Q 3031 2891 3081 2659 
Q 3109 2516 3109 2141 
L 3109 1391 
Q 3109 606 3145 398 
Q 3181 191 3288 0 
L 2700 0 
Q 2613 175 2588 409 
z
M 2541 1666 
Q 2234 1541 1622 1453 
Q 1275 1403 1131 1340 
Q 988 1278 909 1158 
Q 831 1038 831 891 
Q 831 666 1001 516 
Q 1172 366 1500 366 
Q 1825 366 2078 508 
Q 2331 650 2450 897 
Q 2541 1088 2541 1459 
L 2541 1666 
z
" transform="scale(0.015625)"/>
       <path id="ArialMT-72" d="M 416 0 
L 416 3319 
L 922 3319 
L 922 2816 
Q 1116 3169 1280 3281 
Q 1444 3394 1641 3394 
Q 1925 3394 2219 3213 
L 2025 2691 
Q 1819 2813 1613 2813 
Q 1428 2813 1281 2702 
Q 1134 2591 1072 2394 
Q 978 2094 978 1738 
L 978 0 
L 416 0 
z
" transform="scale(0.015625)"/>
       <path id="ArialMT-69" d="M 425 3934 
L 425 4581 
L 988 4581 
L 988 3934 
L 425 3934 
z
M 425 0 
L 425 3319 
L 988 3319 
L 988 0 
L 425 0 
z
" transform="scale(0.015625)"/>
       <path id="ArialMT-6e" d="M 422 0 
L 422 3319 
L 928 3319 
L 928 2847 
Q 1294 3394 1984 3394 
Q 2284 3394 2536 3286 
Q 2788 3178 2913 3003 
Q 3038 2828 3088 2588 
Q 3119 2431 3119 2041 
L 3119 0 
L 2556 0 
L 2556 2019 
Q 2556 2363 2490 2533 
Q 2425 2703 2258 2804 
Q 2091 2906 1866 2906 
Q 1506 2906 1245 2678 
Q 984 2450 984 1813 
L 984 0 
L 422 0 
z
" transform="scale(0.015625)"/>
       <path id="ArialMT-63" d="M 2588 1216 
L 3141 1144 
Q 3050 572 2676 248 
Q 2303 -75 1759 -75 
Q 1078 -75 664 370 
Q 250 816 250 1647 
Q 250 2184 428 2587 
Q 606 2991 970 3192 
Q 1334 3394 1763 3394 
Q 2303 3394 2647 3120 
Q 2991 2847 3088 2344 
L 2541 2259 
Q 2463 2594 2264 2762 
Q 2066 2931 1784 2931 
Q 1359 2931 1093 2626 
Q 828 2322 828 1663 
Q 828 994 1084 691 
Q 1341 388 1753 388 
Q 2084 388 2306 591 
Q 2528 794 2588 1216 
z
" transform="scale(0.015625)"/>
       <path id="ArialMT-20" transform="scale(0.015625)"/>
       <path id="ArialMT-66" d="M 556 0 
L 556 2881 
L 59 2881 
L 59 3319 
L 556 3319 
L 556 3672 
Q 556 4006 616 4169 
Q 697 4388 901 4523 
Q 1106 4659 1475 4659 
Q 1713 4659 2000 4603 
L 1916 4113 
Q 1741 4144 1584 4144 
Q 1328 4144 1222 4034 
Q 1116 3925 1116 3625 
L 1116 3319 
L 1763 3319 
L 1763 2881 
L 1116 2881 
L 1116 0 
L 556 0 
z
" transform="scale(0.015625)"/>
       <path id="DejaVuSans-Oblique-3c9" d="M 1369 -91 
Q 72 -91 434 1766 
Q 575 2500 1256 3500 
L 1875 3500 
Q 1231 2500 1088 1750 
Q 819 397 1519 397 
Q 2166 397 2478 2078 
L 3009 2078 
Q 2669 388 3316 397 
Q 4013 403 4275 1750 
Q 4419 2500 4169 3500 
L 4788 3500 
Q 5075 2500 4934 1766 
Q 4578 -94 3278 -91 
Q 2428 -88 2503 844 
Q 2194 -91 1369 -91 
z
" transform="scale(0.015625)"/>
      </defs>
      <use xlink:href="#ArialMT-56" transform="translate(0 0.203125)"/>
      <use xlink:href="#ArialMT-61" transform="translate(66.699219 0.203125)"/>
      <use xlink:href="#ArialMT-72" transform="translate(122.314453 0.203125)"/>
      <use xlink:href="#ArialMT-69" transform="translate(155.615234 0.203125)"/>
      <use xlink:href="#ArialMT-61" transform="translate(177.832031 0.203125)"/>
      <use xlink:href="#ArialMT-6e" transform="translate(233.447266 0.203125)"/>
      <use xlink:href="#ArialMT-63" transform="translate(289.0625 0.203125)"/>
      <use xlink:href="#ArialMT-65" transform="translate(339.0625 0.203125)"/>
      <use xlink:href="#ArialMT-20" transform="translate(394.677734 0.203125)"/>
      <use xlink:href="#ArialMT-6f" transform="translate(422.460938 0.203125)"/>
      <use xlink:href="#ArialMT-66" transform="translate(478.076172 0.203125)"/>
      <use xlink:href="#ArialMT-20" transform="translate(505.859375 0.203125)"/>
      <use xlink:href="#DejaVuSans-Oblique-3c9" transform="translate(533.642578 0.203125)"/>
     </g>
    </g>
   </g>
   <g id="patch_3">
    <path d="M 78.461417 25936.712649 
L 144.833355 25936.712649 
L 144.833355 33.386686 
L 78.461417 33.386686 
z
" clip-path="url(#p697ac1fb08)" style="fill: #3d1786; stroke: #ffffff; stroke-linejoin: miter"/>
   </g>
   <g id="patch_4">
    <path d="M 161.42634 25936.712649 
L 227.798278 25936.712649 
L 227.798278 45.952182 
L 161.42634 45.952182 
z
" clip-path="url(#p697ac1fb08)" style="fill: #561690; stroke: #ffffff; stroke-linejoin: miter"/>
   </g>
   <g id="patch_5">
    <path d="M 244.391263 25936.712649 
L 310.763201 25936.712649 
L 310.763201 46.091894 
L 244.391263 46.091894 
z
" clip-path="url(#p697ac1fb08)" style="fill: #6e1693; stroke: #ffffff; stroke-linejoin: miter"/>
   </g>
   <g id="patch_6">
    <path d="M 327.356186 25936.712649 
L 393.728124 25936.712649 
L 393.728124 57.508677 
L 327.356186 57.508677 
z
" clip-path="url(#p697ac1fb08)" style="fill: #842290; stroke: #ffffff; stroke-linejoin: miter"/>
   </g>
   <g id="patch_7">
    <path d="M 410.321109 25936.712649 
L 476.693047 25936.712649 
L 476.693047 158.63722 
L 410.321109 158.63722 
z
" clip-path="url(#p697ac1fb08)" style="fill: #9b3689; stroke: #ffffff; stroke-linejoin: miter"/>
   </g>
   <g id="patch_8">
    <path d="M 493.286032 25936.712649 
L 559.65797 25936.712649 
L 559.65797 170.860875 
L 493.286032 170.860875 
z
" clip-path="url(#p697ac1fb08)" style="fill: #b14d80; stroke: #ffffff; stroke-linejoin: miter"/>
   </g>
   <g id="patch_9">
    <path d="M 576.250955 25936.712649 
L 642.622893 25936.712649 
L 642.622893 172.02038 
L 576.250955 172.02038 
z
" clip-path="url(#p697ac1fb08)" style="fill: #c36278; stroke: #ffffff; stroke-linejoin: miter"/>
   </g>
   <g id="patch_10">
    <path d="M 659.215878 25936.712649 
L 725.587816 25936.712649 
L 725.587816 175.096884 
L 659.215878 175.096884 
z
" clip-path="url(#p697ac1fb08)" style="fill: #d3776f; stroke: #ffffff; stroke-linejoin: miter"/>
   </g>
   <g id="patch_11">
    <path d="M 742.180801 25936.712649 
L 808.552739 25936.712649 
L 808.552739 196.173265 
L 742.180801 196.173265 
z
" clip-path="url(#p697ac1fb08)" style="fill: #dc8962; stroke: #ffffff; stroke-linejoin: miter"/>
   </g>
   <g id="patch_12">
    <path d="M 825.145724 25936.712649 
L 891.517662 25936.712649 
L 891.517662 25936.712649 
L 825.145724 25936.712649 
z
" clip-path="url(#p697ac1fb08)" style="fill: #e29b54; stroke: #ffffff; stroke-linejoin: miter"/>
   </g>
   <g id="patch_13">
    <path d="M 908.110646 25936.712649 
L 974.482585 25936.712649 
L 974.482585 25936.712649 
L 908.110646 25936.712649 
z
" clip-path="url(#p697ac1fb08)" style="fill: #e3af47; stroke: #ffffff; stroke-linejoin: miter"/>
   </g>
   <g id="patch_14">
    <path d="M 991.075569 25936.712649 
L 1057.447508 25936.712649 
L 1057.447508 25936.712649 
L 991.075569 25936.712649 
z
" clip-path="url(#p697ac1fb08)" style="fill: #dfc63f; stroke: #ffffff; stroke-linejoin: miter"/>
   </g>
   <g id="line2d_1">
    <path clip-path="url(#p697ac1fb08)" style="fill: none; stroke: #424242; stroke-width: 2.25; stroke-linecap: round"/>
   </g>
   <g id="line2d_2">
    <path clip-path="url(#p697ac1fb08)" style="fill: none; stroke: #424242; stroke-width: 2.25; stroke-linecap: round"/>
   </g>
   <g id="line2d_3">
    <path clip-path="url(#p697ac1fb08)" style="fill: none; stroke: #424242; stroke-width: 2.25; stroke-linecap: round"/>
   </g>
   <g id="line2d_4">
    <path clip-path="url(#p697ac1fb08)" style="fill: none; stroke: #424242; stroke-width: 2.25; stroke-linecap: round"/>
   </g>
   <g id="line2d_5">
    <path clip-path="url(#p697ac1fb08)" style="fill: none; stroke: #424242; stroke-width: 2.25; stroke-linecap: round"/>
   </g>
   <g id="line2d_6">
    <path clip-path="url(#p697ac1fb08)" style="fill: none; stroke: #424242; stroke-width: 2.25; stroke-linecap: round"/>
   </g>
   <g id="line2d_7">
    <path clip-path="url(#p697ac1fb08)" style="fill: none; stroke: #424242; stroke-width: 2.25; stroke-linecap: round"/>
   </g>
   <g id="line2d_8">
    <path clip-path="url(#p697ac1fb08)" style="fill: none; stroke: #424242; stroke-width: 2.25; stroke-linecap: round"/>
   </g>
   <g id="line2d_9">
    <path clip-path="url(#p697ac1fb08)" style="fill: none; stroke: #424242; stroke-width: 2.25; stroke-linecap: round"/>
   </g>
   <g id="line2d_10">
    <path clip-path="url(#p697ac1fb08)" style="fill: none; stroke: #424242; stroke-width: 2.25; stroke-linecap: round"/>
   </g>
   <g id="line2d_11">
    <path clip-path="url(#p697ac1fb08)" style="fill: none; stroke: #424242; stroke-width: 2.25; stroke-linecap: round"/>
   </g>
   <g id="line2d_12">
    <path clip-path="url(#p697ac1fb08)" style="fill: none; stroke: #424242; stroke-width: 2.25; stroke-linecap: round"/>
   </g>
   <g id="patch_15">
    <path d="M 70.164925 207.602409 
L 70.164925 14.256 
" style="fill: none; stroke: #262626; stroke-width: 1.25; stroke-linejoin: miter; stroke-linecap: square"/>
   </g>
   <g id="patch_16">
    <path d="M 1065.744 207.602409 
L 1065.744 14.256 
" style="fill: none; stroke: #262626; stroke-width: 1.25; stroke-linejoin: miter; stroke-linecap: square"/>
   </g>
   <g id="patch_17">
    <path d="M 70.164925 207.602409 
L 1065.744 207.602409 
" style="fill: none; stroke: #262626; stroke-width: 1.25; stroke-linejoin: miter; stroke-linecap: square"/>
   </g>
   <g id="patch_18">
    <path d="M 70.164925 14.256 
L 1065.744 14.256 
" style="fill: none; stroke: #262626; stroke-width: 1.25; stroke-linejoin: miter; stroke-linecap: square"/>
   </g>
   <g id="text_19">
    <!-- $5 \times 10^{1}$ -->
    <g style="fill: #262626" transform="translate(89.927386 31.339186) scale(0.12 -0.12)">
     <defs>
      <path id="DejaVuSans-35" d="M 691 4666 
L 3169 4666 
L 3169 4134 
L 1269 4134 
L 1269 2991 
Q 1406 3038 1543 3061 
Q 1681 3084 1819 3084 
Q 2600 3084 3056 2656 
Q 3513 2228 3513 1497 
Q 3513 744 3044 326 
Q 2575 -91 1722 -91 
Q 1428 -91 1123 -41 
Q 819 9 494 109 
L 494 744 
Q 775 591 1075 516 
Q 1375 441 1709 441 
Q 2250 441 2565 725 
Q 2881 1009 2881 1497 
Q 2881 1984 2565 2268 
Q 2250 2553 1709 2553 
Q 1456 2553 1204 2497 
Q 953 2441 691 2322 
L 691 4666 
z
" transform="scale(0.015625)"/>
      <path id="DejaVuSans-d7" d="M 4488 3438 
L 3059 2003 
L 4488 575 
L 4116 197 
L 2681 1631 
L 1247 197 
L 878 575 
L 2303 2003 
L 878 3438 
L 1247 3816 
L 2681 2381 
L 4116 3816 
L 4488 3438 
z
" transform="scale(0.015625)"/>
      <path id="DejaVuSans-30" d="M 2034 4250 
Q 1547 4250 1301 3770 
Q 1056 3291 1056 2328 
Q 1056 1369 1301 889 
Q 1547 409 2034 409 
Q 2525 409 2770 889 
Q 3016 1369 3016 2328 
Q 3016 3291 2770 3770 
Q 2525 4250 2034 4250 
z
M 2034 4750 
Q 2819 4750 3233 4129 
Q 3647 3509 3647 2328 
Q 3647 1150 3233 529 
Q 2819 -91 2034 -91 
Q 1250 -91 836 529 
Q 422 1150 422 2328 
Q 422 3509 836 4129 
Q 1250 4750 2034 4750 
z
" transform="scale(0.015625)"/>
     </defs>
     <use xlink:href="#DejaVuSans-35" transform="translate(0 0.684375)"/>
     <use xlink:href="#DejaVuSans-d7" transform="translate(83.105469 0.684375)"/>
     <use xlink:href="#DejaVuSans-31" transform="translate(186.376953 0.684375)"/>
     <use xlink:href="#DejaVuSans-30" transform="translate(250 0.684375)"/>
     <use xlink:href="#DejaVuSans-31" transform="translate(314.580078 38.965625) scale(0.7)"/>
    </g>
   </g>
   <g id="text_20">
    <!-- $1 \times 10^{1}$ -->
    <g style="fill: #262626" transform="translate(172.892309 43.904682) scale(0.12 -0.12)">
     <use xlink:href="#DejaVuSans-31" transform="translate(0 0.684375)"/>
     <use xlink:href="#DejaVuSans-d7" transform="translate(83.105469 0.684375)"/>
     <use xlink:href="#DejaVuSans-31" transform="translate(186.376953 0.684375)"/>
     <use xlink:href="#DejaVuSans-30" transform="translate(250 0.684375)"/>
     <use xlink:href="#DejaVuSans-31" transform="translate(314.580078 38.965625) scale(0.7)"/>
    </g>
   </g>
   <g id="text_21">
    <!-- $1 \times 10^{1}$ -->
    <g style="fill: #262626" transform="translate(255.857232 44.044393) scale(0.12 -0.12)">
     <use xlink:href="#DejaVuSans-31" transform="translate(0 0.684375)"/>
     <use xlink:href="#DejaVuSans-d7" transform="translate(83.105469 0.684375)"/>
     <use xlink:href="#DejaVuSans-31" transform="translate(186.376953 0.684375)"/>
     <use xlink:href="#DejaVuSans-30" transform="translate(250 0.684375)"/>
     <use xlink:href="#DejaVuSans-31" transform="translate(314.580078 38.965625) scale(0.7)"/>
    </g>
   </g>
   <g id="text_22">
    <!-- $6 \times 10^{0}$ -->
    <g style="fill: #262626" transform="translate(338.822155 55.461176) scale(0.12 -0.12)">
     <defs>
      <path id="DejaVuSans-36" d="M 2113 2584 
Q 1688 2584 1439 2293 
Q 1191 2003 1191 1497 
Q 1191 994 1439 701 
Q 1688 409 2113 409 
Q 2538 409 2786 701 
Q 3034 994 3034 1497 
Q 3034 2003 2786 2293 
Q 2538 2584 2113 2584 
z
M 3366 4563 
L 3366 3988 
Q 3128 4100 2886 4159 
Q 2644 4219 2406 4219 
Q 1781 4219 1451 3797 
Q 1122 3375 1075 2522 
Q 1259 2794 1537 2939 
Q 1816 3084 2150 3084 
Q 2853 3084 3261 2657 
Q 3669 2231 3669 1497 
Q 3669 778 3244 343 
Q 2819 -91 2113 -91 
Q 1303 -91 875 529 
Q 447 1150 447 2328 
Q 447 3434 972 4092 
Q 1497 4750 2381 4750 
Q 2619 4750 2861 4703 
Q 3103 4656 3366 4563 
z
" transform="scale(0.015625)"/>
     </defs>
     <use xlink:href="#DejaVuSans-36" transform="translate(0 0.765625)"/>
     <use xlink:href="#DejaVuSans-d7" transform="translate(83.105469 0.765625)"/>
     <use xlink:href="#DejaVuSans-31" transform="translate(186.376953 0.765625)"/>
     <use xlink:href="#DejaVuSans-30" transform="translate(250 0.765625)"/>
     <use xlink:href="#DejaVuSans-30" transform="translate(314.580078 39.046875) scale(0.7)"/>
    </g>
   </g>
   <g id="text_23">
    <!-- $7 \times 10^{-4}$ -->
    <g style="fill: #262626" transform="translate(418.247078 156.589719) scale(0.12 -0.12)">
     <defs>
      <path id="DejaVuSans-37" d="M 525 4666 
L 3525 4666 
L 3525 4397 
L 1831 0 
L 1172 0 
L 2766 4134 
L 525 4134 
L 525 4666 
z
" transform="scale(0.015625)"/>
      <path id="DejaVuSans-2212" d="M 678 2272 
L 4684 2272 
L 4684 1741 
L 678 1741 
L 678 2272 
z
" transform="scale(0.015625)"/>
     </defs>
     <use xlink:href="#DejaVuSans-37" transform="translate(0 0.684375)"/>
     <use xlink:href="#DejaVuSans-d7" transform="translate(83.105469 0.684375)"/>
     <use xlink:href="#DejaVuSans-31" transform="translate(186.376953 0.684375)"/>
     <use xlink:href="#DejaVuSans-30" transform="translate(250 0.684375)"/>
     <use xlink:href="#DejaVuSans-2212" transform="translate(314.580078 38.965625) scale(0.7)"/>
     <use xlink:href="#DejaVuSans-34" transform="translate(373.232422 38.965625) scale(0.7)"/>
    </g>
   </g>
   <g id="text_24">
    <!-- $2 \times 10^{-4}$ -->
    <g style="fill: #262626" transform="translate(501.212001 168.813375) scale(0.12 -0.12)">
     <use xlink:href="#DejaVuSans-32" transform="translate(0 0.684375)"/>
     <use xlink:href="#DejaVuSans-d7" transform="translate(83.105469 0.684375)"/>
     <use xlink:href="#DejaVuSans-31" transform="translate(186.376953 0.684375)"/>
     <use xlink:href="#DejaVuSans-30" transform="translate(250 0.684375)"/>
     <use xlink:href="#DejaVuSans-2212" transform="translate(314.580078 38.965625) scale(0.7)"/>
     <use xlink:href="#DejaVuSans-34" transform="translate(373.232422 38.965625) scale(0.7)"/>
    </g>
   </g>
   <g id="text_25">
    <!-- $2 \times 10^{-4}$ -->
    <g style="fill: #262626" transform="translate(584.176924 169.972879) scale(0.12 -0.12)">
     <use xlink:href="#DejaVuSans-32" transform="translate(0 0.684375)"/>
     <use xlink:href="#DejaVuSans-d7" transform="translate(83.105469 0.684375)"/>
     <use xlink:href="#DejaVuSans-31" transform="translate(186.376953 0.684375)"/>
     <use xlink:href="#DejaVuSans-30" transform="translate(250 0.684375)"/>
     <use xlink:href="#DejaVuSans-2212" transform="translate(314.580078 38.965625) scale(0.7)"/>
     <use xlink:href="#DejaVuSans-34" transform="translate(373.232422 38.965625) scale(0.7)"/>
    </g>
   </g>
   <g id="text_26">
    <!-- $1 \times 10^{-4}$ -->
    <g style="fill: #262626" transform="translate(667.141847 173.049384) scale(0.12 -0.12)">
     <use xlink:href="#DejaVuSans-31" transform="translate(0 0.684375)"/>
     <use xlink:href="#DejaVuSans-d7" transform="translate(83.105469 0.684375)"/>
     <use xlink:href="#DejaVuSans-31" transform="translate(186.376953 0.684375)"/>
     <use xlink:href="#DejaVuSans-30" transform="translate(250 0.684375)"/>
     <use xlink:href="#DejaVuSans-2212" transform="translate(314.580078 38.965625) scale(0.7)"/>
     <use xlink:href="#DejaVuSans-34" transform="translate(373.232422 38.965625) scale(0.7)"/>
    </g>
   </g>
   <g id="text_27">
    <!-- $2 \times 10^{-5}$ -->
    <g style="fill: #262626" transform="translate(750.10677 194.125764) scale(0.12 -0.12)">
     <use xlink:href="#DejaVuSans-32" transform="translate(0 0.684375)"/>
     <use xlink:href="#DejaVuSans-d7" transform="translate(83.105469 0.684375)"/>
     <use xlink:href="#DejaVuSans-31" transform="translate(186.376953 0.684375)"/>
     <use xlink:href="#DejaVuSans-30" transform="translate(250 0.684375)"/>
     <use xlink:href="#DejaVuSans-2212" transform="translate(314.580078 38.965625) scale(0.7)"/>
     <use xlink:href="#DejaVuSans-35" transform="translate(373.232422 38.965625) scale(0.7)"/>
    </g>
   </g>
   <g id="text_28">
    <!-- $0 \times 10^{0}$ -->
    <g style="fill: #262626" transform="translate(836.611693 203.04897) scale(0.12 -0.12)">
     <use xlink:href="#DejaVuSans-30" transform="translate(0 0.765625)"/>
     <use xlink:href="#DejaVuSans-d7" transform="translate(83.105469 0.765625)"/>
     <use xlink:href="#DejaVuSans-31" transform="translate(186.376953 0.765625)"/>
     <use xlink:href="#DejaVuSans-30" transform="translate(250 0.765625)"/>
     <use xlink:href="#DejaVuSans-30" transform="translate(314.580078 39.046875) scale(0.7)"/>
    </g>
   </g>
   <g id="text_29">
    <!-- $0 \times 10^{0}$ -->
    <g style="fill: #262626" transform="translate(919.576616 203.04897) scale(0.12 -0.12)">
     <use xlink:href="#DejaVuSans-30" transform="translate(0 0.765625)"/>
     <use xlink:href="#DejaVuSans-d7" transform="translate(83.105469 0.765625)"/>
     <use xlink:href="#DejaVuSans-31" transform="translate(186.376953 0.765625)"/>
     <use xlink:href="#DejaVuSans-30" transform="translate(250 0.765625)"/>
     <use xlink:href="#DejaVuSans-30" transform="translate(314.580078 39.046875) scale(0.7)"/>
    </g>
   </g>
   <g id="text_30">
    <!-- $0 \times 10^{0}$ -->
    <g style="fill: #262626" transform="translate(1002.541539 203.04897) scale(0.12 -0.12)">
     <use xlink:href="#DejaVuSans-30" transform="translate(0 0.765625)"/>
     <use xlink:href="#DejaVuSans-d7" transform="translate(83.105469 0.765625)"/>
     <use xlink:href="#DejaVuSans-31" transform="translate(186.376953 0.765625)"/>
     <use xlink:href="#DejaVuSans-30" transform="translate(250 0.765625)"/>
     <use xlink:href="#DejaVuSans-30" transform="translate(314.580078 39.046875) scale(0.7)"/>
    </g>
   </g>
  </g>
 </g>
 <defs>
  <clipPath id="p697ac1fb08">
   <rect x="70.164925" y="14.256" width="995.579075" height="193.346409"/>
  </clipPath>
 </defs>
</svg>
