<?xml version="1.0" encoding="utf-8" standalone="no"?>
<!DOCTYPE svg PUBLIC "-//W3C//DTD SVG 1.1//EN"
  "http://www.w3.org/Graphics/SVG/1.1/DTD/svg11.dtd">
<svg xmlns:xlink="http://www.w3.org/1999/xlink" width="576pt" height="360pt" viewBox="0 0 576 360" xmlns="http://www.w3.org/2000/svg" version="1.1">
 <metadata>
  <rdf:RDF xmlns:dc="http://purl.org/dc/elements/1.1/" xmlns:cc="http://creativecommons.org/ns#" xmlns:rdf="http://www.w3.org/1999/02/22-rdf-syntax-ns#">
   <cc:Work>
    <dc:type rdf:resource="http://purl.org/dc/dcmitype/StillImage"/>
    <dc:date>2025-07-25T09:45:12.817508</dc:date>
    <dc:format>image/svg+xml</dc:format>
    <dc:creator>
     <cc:Agent>
      <dc:title>Matplotlib v3.10.0, https://matplotlib.org/</dc:title>
     </cc:Agent>
    </dc:creator>
   </cc:Work>
  </rdf:RDF>
 </metadata>
 <defs>
  <style type="text/css">*{stroke-linejoin: round; stroke-linecap: butt}</style>
 </defs>
 <g id="figure_1">
  <g id="patch_1">
   <path d="M 0 360 
L 576 360 
L 576 0 
L 0 0 
z
" style="fill: #ffffff"/>
  </g>
  <g id="axes_1">
   <g id="patch_2">
    <path d="M 61.776 304.884 
L 561.744 304.884 
L 561.744 14.256 
L 61.776 14.256 
z
" style="fill: #ffffff"/>
   </g>
   <g id="matplotlib.axis_1">
    <g id="xtick_1">
     <g id="text_1">
      <!-- 0 -->
      <g style="fill: #262626" transform="translate(80.609162 324.404938) scale(0.14 -0.14)">
       <defs>
        <path id="ArialMT-30" d="M 266 2259 
Q 266 3072 433 3567 
Q 600 4063 929 4331 
Q 1259 4600 1759 4600 
Q 2128 4600 2406 4451 
Q 2684 4303 2865 4023 
Q 3047 3744 3150 3342 
Q 3253 2941 3253 2259 
Q 3253 1453 3087 958 
Q 2922 463 2592 192 
Q 2263 -78 1759 -78 
Q 1097 -78 719 397 
Q 266 969 266 2259 
z
M 844 2259 
Q 844 1131 1108 757 
Q 1372 384 1759 384 
Q 2147 384 2411 759 
Q 2675 1134 2675 2259 
Q 2675 3391 2411 3762 
Q 2147 4134 1753 4134 
Q 1366 4134 1134 3806 
Q 844 3388 844 2259 
z
" transform="scale(0.015625)"/>
       </defs>
       <use xlink:href="#ArialMT-30"/>
      </g>
     </g>
    </g>
    <g id="xtick_2">
     <g id="text_2">
      <!-- 50 -->
      <g style="fill: #262626" transform="translate(186.503067 324.404938) scale(0.14 -0.14)">
       <defs>
        <path id="ArialMT-35" d="M 266 1200 
L 856 1250 
Q 922 819 1161 601 
Q 1400 384 1738 384 
Q 2144 384 2425 690 
Q 2706 997 2706 1503 
Q 2706 1984 2436 2262 
Q 2166 2541 1728 2541 
Q 1456 2541 1237 2417 
Q 1019 2294 894 2097 
L 366 2166 
L 809 4519 
L 3088 4519 
L 3088 3981 
L 1259 3981 
L 1013 2750 
Q 1425 3038 1878 3038 
Q 2478 3038 2890 2622 
Q 3303 2206 3303 1553 
Q 3303 931 2941 478 
Q 2500 -78 1738 -78 
Q 1113 -78 717 272 
Q 322 622 266 1200 
z
" transform="scale(0.015625)"/>
       </defs>
       <use xlink:href="#ArialMT-35"/>
       <use xlink:href="#ArialMT-30" transform="translate(55.615234 0)"/>
      </g>
     </g>
    </g>
    <g id="xtick_3">
     <g id="text_3">
      <!-- 100 -->
      <g style="fill: #262626" transform="translate(292.396972 324.404938) scale(0.14 -0.14)">
       <defs>
        <path id="ArialMT-31" d="M 2384 0 
L 1822 0 
L 1822 3584 
Q 1619 3391 1289 3197 
Q 959 3003 697 2906 
L 697 3450 
Q 1169 3672 1522 3987 
Q 1875 4303 2022 4600 
L 2384 4600 
L 2384 0 
z
" transform="scale(0.015625)"/>
       </defs>
       <use xlink:href="#ArialMT-31"/>
       <use xlink:href="#ArialMT-30" transform="translate(55.615234 0)"/>
       <use xlink:href="#ArialMT-30" transform="translate(111.230469 0)"/>
      </g>
     </g>
    </g>
    <g id="xtick_4">
     <g id="text_4">
      <!-- 150 -->
      <g style="fill: #262626" transform="translate(402.183533 324.404938) scale(0.14 -0.14)">
       <use xlink:href="#ArialMT-31"/>
       <use xlink:href="#ArialMT-35" transform="translate(55.615234 0)"/>
       <use xlink:href="#ArialMT-30" transform="translate(111.230469 0)"/>
      </g>
     </g>
    </g>
    <g id="xtick_5">
     <g id="text_5">
      <!-- 200 -->
      <g style="fill: #262626" transform="translate(511.970094 324.404938) scale(0.14 -0.14)">
       <defs>
        <path id="ArialMT-32" d="M 3222 541 
L 3222 0 
L 194 0 
Q 188 203 259 391 
Q 375 700 629 1000 
Q 884 1300 1366 1694 
Q 2113 2306 2375 2664 
Q 2638 3022 2638 3341 
Q 2638 3675 2398 3904 
Q 2159 4134 1775 4134 
Q 1369 4134 1125 3890 
Q 881 3647 878 3216 
L 300 3275 
Q 359 3922 746 4261 
Q 1134 4600 1788 4600 
Q 2447 4600 2831 4234 
Q 3216 3869 3216 3328 
Q 3216 3053 3103 2787 
Q 2991 2522 2730 2228 
Q 2469 1934 1863 1422 
Q 1356 997 1212 845 
Q 1069 694 975 541 
L 3222 541 
z
" transform="scale(0.015625)"/>
       </defs>
       <use xlink:href="#ArialMT-32"/>
       <use xlink:href="#ArialMT-30" transform="translate(55.615234 0)"/>
       <use xlink:href="#ArialMT-30" transform="translate(111.230469 0)"/>
      </g>
     </g>
    </g>
    <g id="text_6">
     <!-- Trial Index -->
     <g style="fill: #262626" transform="translate(274.715 342.639937) scale(0.16 -0.16)">
      <defs>
       <path id="ArialMT-54" d="M 1659 0 
L 1659 4041 
L 150 4041 
L 150 4581 
L 3781 4581 
L 3781 4041 
L 2266 4041 
L 2266 0 
L 1659 0 
z
" transform="scale(0.015625)"/>
       <path id="ArialMT-72" d="M 416 0 
L 416 3319 
L 922 3319 
L 922 2816 
Q 1116 3169 1280 3281 
Q 1444 3394 1641 3394 
Q 1925 3394 2219 3213 
L 2025 2691 
Q 1819 2813 1613 2813 
Q 1428 2813 1281 2702 
Q 1134 2591 1072 2394 
Q 978 2094 978 1738 
L 978 0 
L 416 0 
z
" transform="scale(0.015625)"/>
       <path id="ArialMT-69" d="M 425 3934 
L 425 4581 
L 988 4581 
L 988 3934 
L 425 3934 
z
M 425 0 
L 425 3319 
L 988 3319 
L 988 0 
L 425 0 
z
" transform="scale(0.015625)"/>
       <path id="ArialMT-61" d="M 2588 409 
Q 2275 144 1986 34 
Q 1697 -75 1366 -75 
Q 819 -75 525 192 
Q 231 459 231 875 
Q 231 1119 342 1320 
Q 453 1522 633 1644 
Q 813 1766 1038 1828 
Q 1203 1872 1538 1913 
Q 2219 1994 2541 2106 
Q 2544 2222 2544 2253 
Q 2544 2597 2384 2738 
Q 2169 2928 1744 2928 
Q 1347 2928 1158 2789 
Q 969 2650 878 2297 
L 328 2372 
Q 403 2725 575 2942 
Q 747 3159 1072 3276 
Q 1397 3394 1825 3394 
Q 2250 3394 2515 3294 
Q 2781 3194 2906 3042 
Q 3031 2891 3081 2659 
Q 3109 2516 3109 2141 
L 3109 1391 
Q 3109 606 3145 398 
Q 3181 191 3288 0 
L 2700 0 
Q 2613 175 2588 409 
z
M 2541 1666 
Q 2234 1541 1622 1453 
Q 1275 1403 1131 1340 
Q 988 1278 909 1158 
Q 831 1038 831 891 
Q 831 666 1001 516 
Q 1172 366 1500 366 
Q 1825 366 2078 508 
Q 2331 650 2450 897 
Q 2541 1088 2541 1459 
L 2541 1666 
z
" transform="scale(0.015625)"/>
       <path id="ArialMT-6c" d="M 409 0 
L 409 4581 
L 972 4581 
L 972 0 
L 409 0 
z
" transform="scale(0.015625)"/>
       <path id="ArialMT-20" transform="scale(0.015625)"/>
       <path id="ArialMT-49" d="M 597 0 
L 597 4581 
L 1203 4581 
L 1203 0 
L 597 0 
z
" transform="scale(0.015625)"/>
       <path id="ArialMT-6e" d="M 422 0 
L 422 3319 
L 928 3319 
L 928 2847 
Q 1294 3394 1984 3394 
Q 2284 3394 2536 3286 
Q 2788 3178 2913 3003 
Q 3038 2828 3088 2588 
Q 3119 2431 3119 2041 
L 3119 0 
L 2556 0 
L 2556 2019 
Q 2556 2363 2490 2533 
Q 2425 2703 2258 2804 
Q 2091 2906 1866 2906 
Q 1506 2906 1245 2678 
Q 984 2450 984 1813 
L 984 0 
L 422 0 
z
" transform="scale(0.015625)"/>
       <path id="ArialMT-64" d="M 2575 0 
L 2575 419 
Q 2259 -75 1647 -75 
Q 1250 -75 917 144 
Q 584 363 401 755 
Q 219 1147 219 1656 
Q 219 2153 384 2558 
Q 550 2963 881 3178 
Q 1213 3394 1622 3394 
Q 1922 3394 2156 3267 
Q 2391 3141 2538 2938 
L 2538 4581 
L 3097 4581 
L 3097 0 
L 2575 0 
z
M 797 1656 
Q 797 1019 1065 703 
Q 1334 388 1700 388 
Q 2069 388 2326 689 
Q 2584 991 2584 1609 
Q 2584 2291 2321 2609 
Q 2059 2928 1675 2928 
Q 1300 2928 1048 2622 
Q 797 2316 797 1656 
z
" transform="scale(0.015625)"/>
       <path id="ArialMT-65" d="M 2694 1069 
L 3275 997 
Q 3138 488 2766 206 
Q 2394 -75 1816 -75 
Q 1088 -75 661 373 
Q 234 822 234 1631 
Q 234 2469 665 2931 
Q 1097 3394 1784 3394 
Q 2450 3394 2872 2941 
Q 3294 2488 3294 1666 
Q 3294 1616 3291 1516 
L 816 1516 
Q 847 969 1125 678 
Q 1403 388 1819 388 
Q 2128 388 2347 550 
Q 2566 713 2694 1069 
z
M 847 1978 
L 2700 1978 
Q 2663 2397 2488 2606 
Q 2219 2931 1791 2931 
Q 1403 2931 1139 2672 
Q 875 2413 847 1978 
z
" transform="scale(0.015625)"/>
       <path id="ArialMT-78" d="M 47 0 
L 1259 1725 
L 138 3319 
L 841 3319 
L 1350 2541 
Q 1494 2319 1581 2169 
Q 1719 2375 1834 2534 
L 2394 3319 
L 3066 3319 
L 1919 1756 
L 3153 0 
L 2463 0 
L 1781 1031 
L 1600 1309 
L 728 0 
L 47 0 
z
" transform="scale(0.015625)"/>
      </defs>
      <use xlink:href="#ArialMT-54"/>
      <use xlink:href="#ArialMT-72" transform="translate(57.333984 0)"/>
      <use xlink:href="#ArialMT-69" transform="translate(90.634766 0)"/>
      <use xlink:href="#ArialMT-61" transform="translate(112.851562 0)"/>
      <use xlink:href="#ArialMT-6c" transform="translate(168.466797 0)"/>
      <use xlink:href="#ArialMT-20" transform="translate(190.683594 0)"/>
      <use xlink:href="#ArialMT-49" transform="translate(218.466797 0)"/>
      <use xlink:href="#ArialMT-6e" transform="translate(246.25 0)"/>
      <use xlink:href="#ArialMT-64" transform="translate(301.865234 0)"/>
      <use xlink:href="#ArialMT-65" transform="translate(357.480469 0)"/>
      <use xlink:href="#ArialMT-78" transform="translate(413.095703 0)"/>
     </g>
    </g>
   </g>
   <g id="matplotlib.axis_2">
    <g id="ytick_1">
     <g id="text_7">
      <!-- 0.5 -->
      <g style="fill: #262626" transform="translate(32.816 292.338732) scale(0.14 -0.14)">
       <defs>
        <path id="ArialMT-2e" d="M 581 0 
L 581 641 
L 1222 641 
L 1222 0 
L 581 0 
z
" transform="scale(0.015625)"/>
       </defs>
       <use xlink:href="#ArialMT-30"/>
       <use xlink:href="#ArialMT-2e" transform="translate(55.615234 0)"/>
       <use xlink:href="#ArialMT-35" transform="translate(83.398438 0)"/>
      </g>
     </g>
    </g>
    <g id="ytick_2">
     <g id="text_8">
      <!-- 1.0 -->
      <g style="fill: #262626" transform="translate(32.816 250.903222) scale(0.14 -0.14)">
       <use xlink:href="#ArialMT-31"/>
       <use xlink:href="#ArialMT-2e" transform="translate(55.615234 0)"/>
       <use xlink:href="#ArialMT-30" transform="translate(83.398438 0)"/>
      </g>
     </g>
    </g>
    <g id="ytick_3">
     <g id="text_9">
      <!-- 1.5 -->
      <g style="fill: #262626" transform="translate(32.816 209.467711) scale(0.14 -0.14)">
       <use xlink:href="#ArialMT-31"/>
       <use xlink:href="#ArialMT-2e" transform="translate(55.615234 0)"/>
       <use xlink:href="#ArialMT-35" transform="translate(83.398438 0)"/>
      </g>
     </g>
    </g>
    <g id="ytick_4">
     <g id="text_10">
      <!-- 2.0 -->
      <g style="fill: #262626" transform="translate(32.816 168.0322) scale(0.14 -0.14)">
       <use xlink:href="#ArialMT-32"/>
       <use xlink:href="#ArialMT-2e" transform="translate(55.615234 0)"/>
       <use xlink:href="#ArialMT-30" transform="translate(83.398438 0)"/>
      </g>
     </g>
    </g>
    <g id="ytick_5">
     <g id="text_11">
      <!-- 2.5 -->
      <g style="fill: #262626" transform="translate(32.816 126.596689) scale(0.14 -0.14)">
       <use xlink:href="#ArialMT-32"/>
       <use xlink:href="#ArialMT-2e" transform="translate(55.615234 0)"/>
       <use xlink:href="#ArialMT-35" transform="translate(83.398438 0)"/>
      </g>
     </g>
    </g>
    <g id="ytick_6">
     <g id="text_12">
      <!-- 3.0 -->
      <g style="fill: #262626" transform="translate(32.816 85.161178) scale(0.14 -0.14)">
       <defs>
        <path id="ArialMT-33" d="M 269 1209 
L 831 1284 
Q 928 806 1161 595 
Q 1394 384 1728 384 
Q 2125 384 2398 659 
Q 2672 934 2672 1341 
Q 2672 1728 2419 1979 
Q 2166 2231 1775 2231 
Q 1616 2231 1378 2169 
L 1441 2663 
Q 1497 2656 1531 2656 
Q 1891 2656 2178 2843 
Q 2466 3031 2466 3422 
Q 2466 3731 2256 3934 
Q 2047 4138 1716 4138 
Q 1388 4138 1169 3931 
Q 950 3725 888 3313 
L 325 3413 
Q 428 3978 793 4289 
Q 1159 4600 1703 4600 
Q 2078 4600 2393 4439 
Q 2709 4278 2876 4000 
Q 3044 3722 3044 3409 
Q 3044 3113 2884 2869 
Q 2725 2625 2413 2481 
Q 2819 2388 3044 2092 
Q 3269 1797 3269 1353 
Q 3269 753 2831 336 
Q 2394 -81 1725 -81 
Q 1122 -81 723 278 
Q 325 638 269 1209 
z
" transform="scale(0.015625)"/>
       </defs>
       <use xlink:href="#ArialMT-33"/>
       <use xlink:href="#ArialMT-2e" transform="translate(55.615234 0)"/>
       <use xlink:href="#ArialMT-30" transform="translate(83.398438 0)"/>
      </g>
     </g>
    </g>
    <g id="ytick_7">
     <g id="text_13">
      <!-- 3.5 -->
      <g style="fill: #262626" transform="translate(32.816 43.725667) scale(0.14 -0.14)">
       <use xlink:href="#ArialMT-33"/>
       <use xlink:href="#ArialMT-2e" transform="translate(55.615234 0)"/>
       <use xlink:href="#ArialMT-35" transform="translate(83.398438 0)"/>
      </g>
     </g>
    </g>
    <g id="text_14">
     <!-- Validation Loss -->
     <g style="fill: #262626" transform="translate(25.636 213.235) rotate(-90) scale(0.16 -0.16)">
      <defs>
       <path id="ArialMT-56" d="M 1803 0 
L 28 4581 
L 684 4581 
L 1875 1253 
Q 2019 853 2116 503 
Q 2222 878 2363 1253 
L 3600 4581 
L 4219 4581 
L 2425 0 
L 1803 0 
z
" transform="scale(0.015625)"/>
       <path id="ArialMT-74" d="M 1650 503 
L 1731 6 
Q 1494 -44 1306 -44 
Q 1000 -44 831 53 
Q 663 150 594 308 
Q 525 466 525 972 
L 525 2881 
L 113 2881 
L 113 3319 
L 525 3319 
L 525 4141 
L 1084 4478 
L 1084 3319 
L 1650 3319 
L 1650 2881 
L 1084 2881 
L 1084 941 
Q 1084 700 1114 631 
Q 1144 563 1211 522 
Q 1278 481 1403 481 
Q 1497 481 1650 503 
z
" transform="scale(0.015625)"/>
       <path id="ArialMT-6f" d="M 213 1659 
Q 213 2581 725 3025 
Q 1153 3394 1769 3394 
Q 2453 3394 2887 2945 
Q 3322 2497 3322 1706 
Q 3322 1066 3130 698 
Q 2938 331 2570 128 
Q 2203 -75 1769 -75 
Q 1072 -75 642 372 
Q 213 819 213 1659 
z
M 791 1659 
Q 791 1022 1069 705 
Q 1347 388 1769 388 
Q 2188 388 2466 706 
Q 2744 1025 2744 1678 
Q 2744 2294 2464 2611 
Q 2184 2928 1769 2928 
Q 1347 2928 1069 2612 
Q 791 2297 791 1659 
z
" transform="scale(0.015625)"/>
       <path id="ArialMT-4c" d="M 469 0 
L 469 4581 
L 1075 4581 
L 1075 541 
L 3331 541 
L 3331 0 
L 469 0 
z
" transform="scale(0.015625)"/>
       <path id="ArialMT-73" d="M 197 991 
L 753 1078 
Q 800 744 1014 566 
Q 1228 388 1613 388 
Q 2000 388 2187 545 
Q 2375 703 2375 916 
Q 2375 1106 2209 1216 
Q 2094 1291 1634 1406 
Q 1016 1563 777 1677 
Q 538 1791 414 1992 
Q 291 2194 291 2438 
Q 291 2659 392 2848 
Q 494 3038 669 3163 
Q 800 3259 1026 3326 
Q 1253 3394 1513 3394 
Q 1903 3394 2198 3281 
Q 2494 3169 2634 2976 
Q 2775 2784 2828 2463 
L 2278 2388 
Q 2241 2644 2061 2787 
Q 1881 2931 1553 2931 
Q 1166 2931 1000 2803 
Q 834 2675 834 2503 
Q 834 2394 903 2306 
Q 972 2216 1119 2156 
Q 1203 2125 1616 2013 
Q 2213 1853 2448 1751 
Q 2684 1650 2818 1456 
Q 2953 1263 2953 975 
Q 2953 694 2789 445 
Q 2625 197 2315 61 
Q 2006 -75 1616 -75 
Q 969 -75 630 194 
Q 291 463 197 991 
z
" transform="scale(0.015625)"/>
      </defs>
      <use xlink:href="#ArialMT-56"/>
      <use xlink:href="#ArialMT-61" transform="translate(59.324219 0)"/>
      <use xlink:href="#ArialMT-6c" transform="translate(114.939453 0)"/>
      <use xlink:href="#ArialMT-69" transform="translate(137.15625 0)"/>
      <use xlink:href="#ArialMT-64" transform="translate(159.373047 0)"/>
      <use xlink:href="#ArialMT-61" transform="translate(214.988281 0)"/>
      <use xlink:href="#ArialMT-74" transform="translate(270.603516 0)"/>
      <use xlink:href="#ArialMT-69" transform="translate(298.386719 0)"/>
      <use xlink:href="#ArialMT-6f" transform="translate(320.603516 0)"/>
      <use xlink:href="#ArialMT-6e" transform="translate(376.21875 0)"/>
      <use xlink:href="#ArialMT-20" transform="translate(431.833984 0)"/>
      <use xlink:href="#ArialMT-4c" transform="translate(459.617188 0)"/>
      <use xlink:href="#ArialMT-6f" transform="translate(515.232422 0)"/>
      <use xlink:href="#ArialMT-73" transform="translate(570.847656 0)"/>
      <use xlink:href="#ArialMT-73" transform="translate(620.847656 0)"/>
     </g>
    </g>
   </g>
   <g id="line2d_1">
    <defs>
     <path id="m43f6c7ab8f" d="M 0 4 
C 1.060812 4 2.078319 3.578535 2.828427 2.828427 
C 3.578535 2.078319 4 1.060812 4 0 
C 4 -1.060812 3.578535 -2.078319 2.828427 -2.828427 
C 2.078319 -3.578535 1.060812 -4 0 -4 
C -1.060812 -4 -2.078319 -3.578535 -2.828427 -2.828427 
C -3.578535 -2.078319 -4 -1.060812 -4 0 
C -4 1.060812 -3.578535 2.078319 -2.828427 2.828427 
C -2.078319 3.578535 -1.060812 4 0 4 
z
" style="stroke: #481078; stroke-opacity: 0.5"/>
    </defs>
    <g clip-path="url(#pf8ce50cfec)">
     <use xlink:href="#m43f6c7ab8f" x="84.501818" y="170.461768" style="fill: #481078; fill-opacity: 0.5; stroke: #481078; stroke-opacity: 0.5"/>
     <use xlink:href="#m43f6c7ab8f" x="86.697549" y="258.416982" style="fill: #481078; fill-opacity: 0.5; stroke: #481078; stroke-opacity: 0.5"/>
     <use xlink:href="#m43f6c7ab8f" x="88.893281" y="27.466364" style="fill: #481078; fill-opacity: 0.5; stroke: #481078; stroke-opacity: 0.5"/>
     <use xlink:href="#m43f6c7ab8f" x="91.089012" y="161.173373" style="fill: #481078; fill-opacity: 0.5; stroke: #481078; stroke-opacity: 0.5"/>
     <use xlink:href="#m43f6c7ab8f" x="93.284743" y="112.030887" style="fill: #481078; fill-opacity: 0.5; stroke: #481078; stroke-opacity: 0.5"/>
     <use xlink:href="#m43f6c7ab8f" x="95.480474" y="194.245446" style="fill: #481078; fill-opacity: 0.5; stroke: #481078; stroke-opacity: 0.5"/>
     <use xlink:href="#m43f6c7ab8f" x="97.676206" y="218.577422" style="fill: #481078; fill-opacity: 0.5; stroke: #481078; stroke-opacity: 0.5"/>
     <use xlink:href="#m43f6c7ab8f" x="99.871937" y="206.435205" style="fill: #481078; fill-opacity: 0.5; stroke: #481078; stroke-opacity: 0.5"/>
     <use xlink:href="#m43f6c7ab8f" x="102.067668" y="215.291737" style="fill: #481078; fill-opacity: 0.5; stroke: #481078; stroke-opacity: 0.5"/>
     <use xlink:href="#m43f6c7ab8f" x="104.263399" y="201.713006" style="fill: #481078; fill-opacity: 0.5; stroke: #481078; stroke-opacity: 0.5"/>
     <use xlink:href="#m43f6c7ab8f" x="106.45913" y="145.757068" style="fill: #481078; fill-opacity: 0.5; stroke: #481078; stroke-opacity: 0.5"/>
     <use xlink:href="#m43f6c7ab8f" x="108.654862" y="257.823216" style="fill: #481078; fill-opacity: 0.5; stroke: #481078; stroke-opacity: 0.5"/>
     <use xlink:href="#m43f6c7ab8f" x="110.850593" y="231.577309" style="fill: #481078; fill-opacity: 0.5; stroke: #481078; stroke-opacity: 0.5"/>
     <use xlink:href="#m43f6c7ab8f" x="113.046324" y="213.052104" style="fill: #481078; fill-opacity: 0.5; stroke: #481078; stroke-opacity: 0.5"/>
     <use xlink:href="#m43f6c7ab8f" x="115.242055" y="192.773136" style="fill: #481078; fill-opacity: 0.5; stroke: #481078; stroke-opacity: 0.5"/>
     <use xlink:href="#m43f6c7ab8f" x="117.437787" y="234.966763" style="fill: #481078; fill-opacity: 0.5; stroke: #481078; stroke-opacity: 0.5"/>
     <use xlink:href="#m43f6c7ab8f" x="119.633518" y="266.826524" style="fill: #481078; fill-opacity: 0.5; stroke: #481078; stroke-opacity: 0.5"/>
     <use xlink:href="#m43f6c7ab8f" x="121.829249" y="278.107077" style="fill: #481078; fill-opacity: 0.5; stroke: #481078; stroke-opacity: 0.5"/>
     <use xlink:href="#m43f6c7ab8f" x="124.02498" y="260.905279" style="fill: #481078; fill-opacity: 0.5; stroke: #481078; stroke-opacity: 0.5"/>
     <use xlink:href="#m43f6c7ab8f" x="126.220711" y="224.309864" style="fill: #481078; fill-opacity: 0.5; stroke: #481078; stroke-opacity: 0.5"/>
     <use xlink:href="#m43f6c7ab8f" x="128.416443" y="246.218728" style="fill: #481078; fill-opacity: 0.5; stroke: #481078; stroke-opacity: 0.5"/>
     <use xlink:href="#m43f6c7ab8f" x="130.612174" y="263.021108" style="fill: #481078; fill-opacity: 0.5; stroke: #481078; stroke-opacity: 0.5"/>
     <use xlink:href="#m43f6c7ab8f" x="132.807905" y="274.621143" style="fill: #481078; fill-opacity: 0.5; stroke: #481078; stroke-opacity: 0.5"/>
     <use xlink:href="#m43f6c7ab8f" x="135.003636" y="261.671759" style="fill: #481078; fill-opacity: 0.5; stroke: #481078; stroke-opacity: 0.5"/>
     <use xlink:href="#m43f6c7ab8f" x="137.199368" y="266.864397" style="fill: #481078; fill-opacity: 0.5; stroke: #481078; stroke-opacity: 0.5"/>
     <use xlink:href="#m43f6c7ab8f" x="139.395099" y="221.612791" style="fill: #481078; fill-opacity: 0.5; stroke: #481078; stroke-opacity: 0.5"/>
     <use xlink:href="#m43f6c7ab8f" x="141.59083" y="265.95735" style="fill: #481078; fill-opacity: 0.5; stroke: #481078; stroke-opacity: 0.5"/>
     <use xlink:href="#m43f6c7ab8f" x="143.786561" y="268.419557" style="fill: #481078; fill-opacity: 0.5; stroke: #481078; stroke-opacity: 0.5"/>
     <use xlink:href="#m43f6c7ab8f" x="145.982292" y="263.715712" style="fill: #481078; fill-opacity: 0.5; stroke: #481078; stroke-opacity: 0.5"/>
     <use xlink:href="#m43f6c7ab8f" x="148.178024" y="229.663912" style="fill: #481078; fill-opacity: 0.5; stroke: #481078; stroke-opacity: 0.5"/>
     <use xlink:href="#m43f6c7ab8f" x="150.373755" y="191.804104" style="fill: #481078; fill-opacity: 0.5; stroke: #481078; stroke-opacity: 0.5"/>
     <use xlink:href="#m43f6c7ab8f" x="152.569486" y="116.299597" style="fill: #481078; fill-opacity: 0.5; stroke: #481078; stroke-opacity: 0.5"/>
     <use xlink:href="#m43f6c7ab8f" x="154.765217" y="260.155146" style="fill: #481078; fill-opacity: 0.5; stroke: #481078; stroke-opacity: 0.5"/>
     <use xlink:href="#m43f6c7ab8f" x="156.960949" y="274.981401" style="fill: #481078; fill-opacity: 0.5; stroke: #481078; stroke-opacity: 0.5"/>
     <use xlink:href="#m43f6c7ab8f" x="159.15668" y="282.664565" style="fill: #481078; fill-opacity: 0.5; stroke: #481078; stroke-opacity: 0.5"/>
     <use xlink:href="#m43f6c7ab8f" x="161.352411" y="259.43209" style="fill: #481078; fill-opacity: 0.5; stroke: #481078; stroke-opacity: 0.5"/>
     <use xlink:href="#m43f6c7ab8f" x="163.548142" y="269.774871" style="fill: #481078; fill-opacity: 0.5; stroke: #481078; stroke-opacity: 0.5"/>
     <use xlink:href="#m43f6c7ab8f" x="165.743874" y="273.544337" style="fill: #481078; fill-opacity: 0.5; stroke: #481078; stroke-opacity: 0.5"/>
     <use xlink:href="#m43f6c7ab8f" x="167.939605" y="274.544875" style="fill: #481078; fill-opacity: 0.5; stroke: #481078; stroke-opacity: 0.5"/>
     <use xlink:href="#m43f6c7ab8f" x="170.135336" y="265.021861" style="fill: #481078; fill-opacity: 0.5; stroke: #481078; stroke-opacity: 0.5"/>
     <use xlink:href="#m43f6c7ab8f" x="172.331067" y="282.528329" style="fill: #481078; fill-opacity: 0.5; stroke: #481078; stroke-opacity: 0.5"/>
     <use xlink:href="#m43f6c7ab8f" x="174.526798" y="282.379223" style="fill: #481078; fill-opacity: 0.5; stroke: #481078; stroke-opacity: 0.5"/>
     <use xlink:href="#m43f6c7ab8f" x="176.72253" y="254.307544" style="fill: #481078; fill-opacity: 0.5; stroke: #481078; stroke-opacity: 0.5"/>
     <use xlink:href="#m43f6c7ab8f" x="178.918261" y="263.996438" style="fill: #481078; fill-opacity: 0.5; stroke: #481078; stroke-opacity: 0.5"/>
     <use xlink:href="#m43f6c7ab8f" x="181.113992" y="273.262497" style="fill: #481078; fill-opacity: 0.5; stroke: #481078; stroke-opacity: 0.5"/>
     <use xlink:href="#m43f6c7ab8f" x="183.309723" y="260.100273" style="fill: #481078; fill-opacity: 0.5; stroke: #481078; stroke-opacity: 0.5"/>
     <use xlink:href="#m43f6c7ab8f" x="185.505455" y="281.208801" style="fill: #481078; fill-opacity: 0.5; stroke: #481078; stroke-opacity: 0.5"/>
     <use xlink:href="#m43f6c7ab8f" x="187.701186" y="280.436636" style="fill: #481078; fill-opacity: 0.5; stroke: #481078; stroke-opacity: 0.5"/>
     <use xlink:href="#m43f6c7ab8f" x="189.896917" y="282.503428" style="fill: #481078; fill-opacity: 0.5; stroke: #481078; stroke-opacity: 0.5"/>
     <use xlink:href="#m43f6c7ab8f" x="192.092648" y="265.111394" style="fill: #481078; fill-opacity: 0.5; stroke: #481078; stroke-opacity: 0.5"/>
     <use xlink:href="#m43f6c7ab8f" x="194.288379" y="242.6059" style="fill: #481078; fill-opacity: 0.5; stroke: #481078; stroke-opacity: 0.5"/>
     <use xlink:href="#m43f6c7ab8f" x="196.484111" y="283.57959" style="fill: #481078; fill-opacity: 0.5; stroke: #481078; stroke-opacity: 0.5"/>
     <use xlink:href="#m43f6c7ab8f" x="198.679842" y="275.055809" style="fill: #481078; fill-opacity: 0.5; stroke: #481078; stroke-opacity: 0.5"/>
     <use xlink:href="#m43f6c7ab8f" x="200.875573" y="276.013735" style="fill: #481078; fill-opacity: 0.5; stroke: #481078; stroke-opacity: 0.5"/>
     <use xlink:href="#m43f6c7ab8f" x="203.071304" y="279.022755" style="fill: #481078; fill-opacity: 0.5; stroke: #481078; stroke-opacity: 0.5"/>
     <use xlink:href="#m43f6c7ab8f" x="205.267036" y="245.054033" style="fill: #481078; fill-opacity: 0.5; stroke: #481078; stroke-opacity: 0.5"/>
     <use xlink:href="#m43f6c7ab8f" x="207.462767" y="264.215133" style="fill: #481078; fill-opacity: 0.5; stroke: #481078; stroke-opacity: 0.5"/>
     <use xlink:href="#m43f6c7ab8f" x="209.658498" y="271.315046" style="fill: #481078; fill-opacity: 0.5; stroke: #481078; stroke-opacity: 0.5"/>
     <use xlink:href="#m43f6c7ab8f" x="211.854229" y="254.829499" style="fill: #481078; fill-opacity: 0.5; stroke: #481078; stroke-opacity: 0.5"/>
     <use xlink:href="#m43f6c7ab8f" x="214.04996" y="261.043145" style="fill: #481078; fill-opacity: 0.5; stroke: #481078; stroke-opacity: 0.5"/>
     <use xlink:href="#m43f6c7ab8f" x="216.245692" y="274.095481" style="fill: #481078; fill-opacity: 0.5; stroke: #481078; stroke-opacity: 0.5"/>
     <use xlink:href="#m43f6c7ab8f" x="218.441423" y="279.737882" style="fill: #481078; fill-opacity: 0.5; stroke: #481078; stroke-opacity: 0.5"/>
     <use xlink:href="#m43f6c7ab8f" x="220.637154" y="263.094892" style="fill: #481078; fill-opacity: 0.5; stroke: #481078; stroke-opacity: 0.5"/>
     <use xlink:href="#m43f6c7ab8f" x="222.832885" y="244.004531" style="fill: #481078; fill-opacity: 0.5; stroke: #481078; stroke-opacity: 0.5"/>
     <use xlink:href="#m43f6c7ab8f" x="225.028617" y="255.954752" style="fill: #481078; fill-opacity: 0.5; stroke: #481078; stroke-opacity: 0.5"/>
     <use xlink:href="#m43f6c7ab8f" x="227.224348" y="281.043829" style="fill: #481078; fill-opacity: 0.5; stroke: #481078; stroke-opacity: 0.5"/>
     <use xlink:href="#m43f6c7ab8f" x="229.420079" y="274.71824" style="fill: #481078; fill-opacity: 0.5; stroke: #481078; stroke-opacity: 0.5"/>
     <use xlink:href="#m43f6c7ab8f" x="231.61581" y="280.916779" style="fill: #481078; fill-opacity: 0.5; stroke: #481078; stroke-opacity: 0.5"/>
     <use xlink:href="#m43f6c7ab8f" x="233.811542" y="281.877279" style="fill: #481078; fill-opacity: 0.5; stroke: #481078; stroke-opacity: 0.5"/>
     <use xlink:href="#m43f6c7ab8f" x="236.007273" y="277.189324" style="fill: #481078; fill-opacity: 0.5; stroke: #481078; stroke-opacity: 0.5"/>
     <use xlink:href="#m43f6c7ab8f" x="238.203004" y="275.083604" style="fill: #481078; fill-opacity: 0.5; stroke: #481078; stroke-opacity: 0.5"/>
     <use xlink:href="#m43f6c7ab8f" x="240.398735" y="274.792998" style="fill: #481078; fill-opacity: 0.5; stroke: #481078; stroke-opacity: 0.5"/>
     <use xlink:href="#m43f6c7ab8f" x="242.594466" y="278.513622" style="fill: #481078; fill-opacity: 0.5; stroke: #481078; stroke-opacity: 0.5"/>
     <use xlink:href="#m43f6c7ab8f" x="244.790198" y="274.332695" style="fill: #481078; fill-opacity: 0.5; stroke: #481078; stroke-opacity: 0.5"/>
     <use xlink:href="#m43f6c7ab8f" x="246.985929" y="269.635347" style="fill: #481078; fill-opacity: 0.5; stroke: #481078; stroke-opacity: 0.5"/>
     <use xlink:href="#m43f6c7ab8f" x="249.18166" y="273.306292" style="fill: #481078; fill-opacity: 0.5; stroke: #481078; stroke-opacity: 0.5"/>
     <use xlink:href="#m43f6c7ab8f" x="251.377391" y="285.681588" style="fill: #481078; fill-opacity: 0.5; stroke: #481078; stroke-opacity: 0.5"/>
     <use xlink:href="#m43f6c7ab8f" x="253.573123" y="279.83961" style="fill: #481078; fill-opacity: 0.5; stroke: #481078; stroke-opacity: 0.5"/>
     <use xlink:href="#m43f6c7ab8f" x="255.768854" y="260.601713" style="fill: #481078; fill-opacity: 0.5; stroke: #481078; stroke-opacity: 0.5"/>
     <use xlink:href="#m43f6c7ab8f" x="257.964585" y="277.218906" style="fill: #481078; fill-opacity: 0.5; stroke: #481078; stroke-opacity: 0.5"/>
     <use xlink:href="#m43f6c7ab8f" x="260.160316" y="276.401776" style="fill: #481078; fill-opacity: 0.5; stroke: #481078; stroke-opacity: 0.5"/>
     <use xlink:href="#m43f6c7ab8f" x="262.356047" y="285.652925" style="fill: #481078; fill-opacity: 0.5; stroke: #481078; stroke-opacity: 0.5"/>
     <use xlink:href="#m43f6c7ab8f" x="264.551779" y="274.885413" style="fill: #481078; fill-opacity: 0.5; stroke: #481078; stroke-opacity: 0.5"/>
     <use xlink:href="#m43f6c7ab8f" x="266.74751" y="287.543182" style="fill: #481078; fill-opacity: 0.5; stroke: #481078; stroke-opacity: 0.5"/>
     <use xlink:href="#m43f6c7ab8f" x="268.943241" y="276.096098" style="fill: #481078; fill-opacity: 0.5; stroke: #481078; stroke-opacity: 0.5"/>
     <use xlink:href="#m43f6c7ab8f" x="271.138972" y="260.140472" style="fill: #481078; fill-opacity: 0.5; stroke: #481078; stroke-opacity: 0.5"/>
     <use xlink:href="#m43f6c7ab8f" x="273.334704" y="260.795157" style="fill: #481078; fill-opacity: 0.5; stroke: #481078; stroke-opacity: 0.5"/>
     <use xlink:href="#m43f6c7ab8f" x="275.530435" y="288.351236" style="fill: #481078; fill-opacity: 0.5; stroke: #481078; stroke-opacity: 0.5"/>
     <use xlink:href="#m43f6c7ab8f" x="277.726166" y="258.777304" style="fill: #481078; fill-opacity: 0.5; stroke: #481078; stroke-opacity: 0.5"/>
     <use xlink:href="#m43f6c7ab8f" x="279.921897" y="261.722829" style="fill: #481078; fill-opacity: 0.5; stroke: #481078; stroke-opacity: 0.5"/>
     <use xlink:href="#m43f6c7ab8f" x="282.117628" y="282.039347" style="fill: #481078; fill-opacity: 0.5; stroke: #481078; stroke-opacity: 0.5"/>
     <use xlink:href="#m43f6c7ab8f" x="284.31336" y="275.944286" style="fill: #481078; fill-opacity: 0.5; stroke: #481078; stroke-opacity: 0.5"/>
     <use xlink:href="#m43f6c7ab8f" x="286.509091" y="278.922354" style="fill: #481078; fill-opacity: 0.5; stroke: #481078; stroke-opacity: 0.5"/>
     <use xlink:href="#m43f6c7ab8f" x="288.704822" y="291.673636" style="fill: #481078; fill-opacity: 0.5; stroke: #481078; stroke-opacity: 0.5"/>
     <use xlink:href="#m43f6c7ab8f" x="290.900553" y="254.387618" style="fill: #481078; fill-opacity: 0.5; stroke: #481078; stroke-opacity: 0.5"/>
     <use xlink:href="#m43f6c7ab8f" x="293.096285" y="285.211687" style="fill: #481078; fill-opacity: 0.5; stroke: #481078; stroke-opacity: 0.5"/>
     <use xlink:href="#m43f6c7ab8f" x="295.292016" y="275.947908" style="fill: #481078; fill-opacity: 0.5; stroke: #481078; stroke-opacity: 0.5"/>
     <use xlink:href="#m43f6c7ab8f" x="297.487747" y="274.769096" style="fill: #481078; fill-opacity: 0.5; stroke: #481078; stroke-opacity: 0.5"/>
     <use xlink:href="#m43f6c7ab8f" x="299.683478" y="255.763946" style="fill: #481078; fill-opacity: 0.5; stroke: #481078; stroke-opacity: 0.5"/>
     <use xlink:href="#m43f6c7ab8f" x="301.879209" y="274.409064" style="fill: #481078; fill-opacity: 0.5; stroke: #481078; stroke-opacity: 0.5"/>
     <use xlink:href="#m43f6c7ab8f" x="304.074941" y="273.180587" style="fill: #481078; fill-opacity: 0.5; stroke: #481078; stroke-opacity: 0.5"/>
     <use xlink:href="#m43f6c7ab8f" x="306.270672" y="284.560701" style="fill: #481078; fill-opacity: 0.5; stroke: #481078; stroke-opacity: 0.5"/>
     <use xlink:href="#m43f6c7ab8f" x="308.466403" y="282.038833" style="fill: #481078; fill-opacity: 0.5; stroke: #481078; stroke-opacity: 0.5"/>
     <use xlink:href="#m43f6c7ab8f" x="310.662134" y="259.583973" style="fill: #481078; fill-opacity: 0.5; stroke: #481078; stroke-opacity: 0.5"/>
     <use xlink:href="#m43f6c7ab8f" x="312.857866" y="276.768309" style="fill: #481078; fill-opacity: 0.5; stroke: #481078; stroke-opacity: 0.5"/>
     <use xlink:href="#m43f6c7ab8f" x="315.053597" y="278.653642" style="fill: #481078; fill-opacity: 0.5; stroke: #481078; stroke-opacity: 0.5"/>
     <use xlink:href="#m43f6c7ab8f" x="317.249328" y="269.93059" style="fill: #481078; fill-opacity: 0.5; stroke: #481078; stroke-opacity: 0.5"/>
     <use xlink:href="#m43f6c7ab8f" x="319.445059" y="283.25738" style="fill: #481078; fill-opacity: 0.5; stroke: #481078; stroke-opacity: 0.5"/>
     <use xlink:href="#m43f6c7ab8f" x="321.640791" y="282.994755" style="fill: #481078; fill-opacity: 0.5; stroke: #481078; stroke-opacity: 0.5"/>
     <use xlink:href="#m43f6c7ab8f" x="323.836522" y="285.807737" style="fill: #481078; fill-opacity: 0.5; stroke: #481078; stroke-opacity: 0.5"/>
     <use xlink:href="#m43f6c7ab8f" x="326.032253" y="288.191001" style="fill: #481078; fill-opacity: 0.5; stroke: #481078; stroke-opacity: 0.5"/>
     <use xlink:href="#m43f6c7ab8f" x="328.227984" y="284.382016" style="fill: #481078; fill-opacity: 0.5; stroke: #481078; stroke-opacity: 0.5"/>
     <use xlink:href="#m43f6c7ab8f" x="330.423715" y="284.887864" style="fill: #481078; fill-opacity: 0.5; stroke: #481078; stroke-opacity: 0.5"/>
     <use xlink:href="#m43f6c7ab8f" x="332.619447" y="286.744853" style="fill: #481078; fill-opacity: 0.5; stroke: #481078; stroke-opacity: 0.5"/>
     <use xlink:href="#m43f6c7ab8f" x="334.815178" y="260.759809" style="fill: #481078; fill-opacity: 0.5; stroke: #481078; stroke-opacity: 0.5"/>
     <use xlink:href="#m43f6c7ab8f" x="337.010909" y="260.007691" style="fill: #481078; fill-opacity: 0.5; stroke: #481078; stroke-opacity: 0.5"/>
     <use xlink:href="#m43f6c7ab8f" x="339.20664" y="280.487899" style="fill: #481078; fill-opacity: 0.5; stroke: #481078; stroke-opacity: 0.5"/>
     <use xlink:href="#m43f6c7ab8f" x="341.402372" y="262.025994" style="fill: #481078; fill-opacity: 0.5; stroke: #481078; stroke-opacity: 0.5"/>
     <use xlink:href="#m43f6c7ab8f" x="343.598103" y="256.813664" style="fill: #481078; fill-opacity: 0.5; stroke: #481078; stroke-opacity: 0.5"/>
     <use xlink:href="#m43f6c7ab8f" x="345.793834" y="282.308791" style="fill: #481078; fill-opacity: 0.5; stroke: #481078; stroke-opacity: 0.5"/>
     <use xlink:href="#m43f6c7ab8f" x="347.989565" y="264.232885" style="fill: #481078; fill-opacity: 0.5; stroke: #481078; stroke-opacity: 0.5"/>
     <use xlink:href="#m43f6c7ab8f" x="350.185296" y="282.578097" style="fill: #481078; fill-opacity: 0.5; stroke: #481078; stroke-opacity: 0.5"/>
     <use xlink:href="#m43f6c7ab8f" x="352.381028" y="235.650951" style="fill: #481078; fill-opacity: 0.5; stroke: #481078; stroke-opacity: 0.5"/>
     <use xlink:href="#m43f6c7ab8f" x="354.576759" y="262.954103" style="fill: #481078; fill-opacity: 0.5; stroke: #481078; stroke-opacity: 0.5"/>
     <use xlink:href="#m43f6c7ab8f" x="356.77249" y="261.951355" style="fill: #481078; fill-opacity: 0.5; stroke: #481078; stroke-opacity: 0.5"/>
     <use xlink:href="#m43f6c7ab8f" x="358.968221" y="283.115055" style="fill: #481078; fill-opacity: 0.5; stroke: #481078; stroke-opacity: 0.5"/>
     <use xlink:href="#m43f6c7ab8f" x="361.163953" y="270.430949" style="fill: #481078; fill-opacity: 0.5; stroke: #481078; stroke-opacity: 0.5"/>
     <use xlink:href="#m43f6c7ab8f" x="363.359684" y="279.348596" style="fill: #481078; fill-opacity: 0.5; stroke: #481078; stroke-opacity: 0.5"/>
     <use xlink:href="#m43f6c7ab8f" x="365.555415" y="284.336412" style="fill: #481078; fill-opacity: 0.5; stroke: #481078; stroke-opacity: 0.5"/>
     <use xlink:href="#m43f6c7ab8f" x="367.751146" y="268.901146" style="fill: #481078; fill-opacity: 0.5; stroke: #481078; stroke-opacity: 0.5"/>
     <use xlink:href="#m43f6c7ab8f" x="369.946877" y="278.90207" style="fill: #481078; fill-opacity: 0.5; stroke: #481078; stroke-opacity: 0.5"/>
     <use xlink:href="#m43f6c7ab8f" x="372.142609" y="282.640929" style="fill: #481078; fill-opacity: 0.5; stroke: #481078; stroke-opacity: 0.5"/>
     <use xlink:href="#m43f6c7ab8f" x="374.33834" y="276.210106" style="fill: #481078; fill-opacity: 0.5; stroke: #481078; stroke-opacity: 0.5"/>
     <use xlink:href="#m43f6c7ab8f" x="376.534071" y="279.764533" style="fill: #481078; fill-opacity: 0.5; stroke: #481078; stroke-opacity: 0.5"/>
     <use xlink:href="#m43f6c7ab8f" x="378.729802" y="274.709936" style="fill: #481078; fill-opacity: 0.5; stroke: #481078; stroke-opacity: 0.5"/>
     <use xlink:href="#m43f6c7ab8f" x="380.925534" y="274.047517" style="fill: #481078; fill-opacity: 0.5; stroke: #481078; stroke-opacity: 0.5"/>
     <use xlink:href="#m43f6c7ab8f" x="383.121265" y="257.393228" style="fill: #481078; fill-opacity: 0.5; stroke: #481078; stroke-opacity: 0.5"/>
     <use xlink:href="#m43f6c7ab8f" x="385.316996" y="280.872969" style="fill: #481078; fill-opacity: 0.5; stroke: #481078; stroke-opacity: 0.5"/>
     <use xlink:href="#m43f6c7ab8f" x="387.512727" y="257.619577" style="fill: #481078; fill-opacity: 0.5; stroke: #481078; stroke-opacity: 0.5"/>
     <use xlink:href="#m43f6c7ab8f" x="389.708458" y="275.078042" style="fill: #481078; fill-opacity: 0.5; stroke: #481078; stroke-opacity: 0.5"/>
     <use xlink:href="#m43f6c7ab8f" x="391.90419" y="268.024402" style="fill: #481078; fill-opacity: 0.5; stroke: #481078; stroke-opacity: 0.5"/>
     <use xlink:href="#m43f6c7ab8f" x="394.099921" y="277.901733" style="fill: #481078; fill-opacity: 0.5; stroke: #481078; stroke-opacity: 0.5"/>
     <use xlink:href="#m43f6c7ab8f" x="396.295652" y="283.579683" style="fill: #481078; fill-opacity: 0.5; stroke: #481078; stroke-opacity: 0.5"/>
     <use xlink:href="#m43f6c7ab8f" x="398.491383" y="280.841004" style="fill: #481078; fill-opacity: 0.5; stroke: #481078; stroke-opacity: 0.5"/>
     <use xlink:href="#m43f6c7ab8f" x="400.687115" y="286.581961" style="fill: #481078; fill-opacity: 0.5; stroke: #481078; stroke-opacity: 0.5"/>
     <use xlink:href="#m43f6c7ab8f" x="402.882846" y="275.275921" style="fill: #481078; fill-opacity: 0.5; stroke: #481078; stroke-opacity: 0.5"/>
     <use xlink:href="#m43f6c7ab8f" x="405.078577" y="280.183359" style="fill: #481078; fill-opacity: 0.5; stroke: #481078; stroke-opacity: 0.5"/>
     <use xlink:href="#m43f6c7ab8f" x="407.274308" y="259.535842" style="fill: #481078; fill-opacity: 0.5; stroke: #481078; stroke-opacity: 0.5"/>
     <use xlink:href="#m43f6c7ab8f" x="409.47004" y="277.270776" style="fill: #481078; fill-opacity: 0.5; stroke: #481078; stroke-opacity: 0.5"/>
     <use xlink:href="#m43f6c7ab8f" x="411.665771" y="278.299494" style="fill: #481078; fill-opacity: 0.5; stroke: #481078; stroke-opacity: 0.5"/>
     <use xlink:href="#m43f6c7ab8f" x="413.861502" y="279.998444" style="fill: #481078; fill-opacity: 0.5; stroke: #481078; stroke-opacity: 0.5"/>
     <use xlink:href="#m43f6c7ab8f" x="416.057233" y="278.731996" style="fill: #481078; fill-opacity: 0.5; stroke: #481078; stroke-opacity: 0.5"/>
     <use xlink:href="#m43f6c7ab8f" x="418.252964" y="221.515361" style="fill: #481078; fill-opacity: 0.5; stroke: #481078; stroke-opacity: 0.5"/>
     <use xlink:href="#m43f6c7ab8f" x="420.448696" y="290.312349" style="fill: #481078; fill-opacity: 0.5; stroke: #481078; stroke-opacity: 0.5"/>
     <use xlink:href="#m43f6c7ab8f" x="422.644427" y="124.837906" style="fill: #481078; fill-opacity: 0.5; stroke: #481078; stroke-opacity: 0.5"/>
     <use xlink:href="#m43f6c7ab8f" x="424.840158" y="268.090122" style="fill: #481078; fill-opacity: 0.5; stroke: #481078; stroke-opacity: 0.5"/>
     <use xlink:href="#m43f6c7ab8f" x="427.035889" y="281.326764" style="fill: #481078; fill-opacity: 0.5; stroke: #481078; stroke-opacity: 0.5"/>
     <use xlink:href="#m43f6c7ab8f" x="429.231621" y="268.136625" style="fill: #481078; fill-opacity: 0.5; stroke: #481078; stroke-opacity: 0.5"/>
     <use xlink:href="#m43f6c7ab8f" x="431.427352" y="272.347272" style="fill: #481078; fill-opacity: 0.5; stroke: #481078; stroke-opacity: 0.5"/>
     <use xlink:href="#m43f6c7ab8f" x="433.623083" y="279.104597" style="fill: #481078; fill-opacity: 0.5; stroke: #481078; stroke-opacity: 0.5"/>
     <use xlink:href="#m43f6c7ab8f" x="435.818814" y="283.751689" style="fill: #481078; fill-opacity: 0.5; stroke: #481078; stroke-opacity: 0.5"/>
     <use xlink:href="#m43f6c7ab8f" x="438.014545" y="282.896941" style="fill: #481078; fill-opacity: 0.5; stroke: #481078; stroke-opacity: 0.5"/>
     <use xlink:href="#m43f6c7ab8f" x="440.210277" y="278.275387" style="fill: #481078; fill-opacity: 0.5; stroke: #481078; stroke-opacity: 0.5"/>
     <use xlink:href="#m43f6c7ab8f" x="442.406008" y="278.51653" style="fill: #481078; fill-opacity: 0.5; stroke: #481078; stroke-opacity: 0.5"/>
     <use xlink:href="#m43f6c7ab8f" x="444.601739" y="273.674794" style="fill: #481078; fill-opacity: 0.5; stroke: #481078; stroke-opacity: 0.5"/>
     <use xlink:href="#m43f6c7ab8f" x="446.79747" y="284.369666" style="fill: #481078; fill-opacity: 0.5; stroke: #481078; stroke-opacity: 0.5"/>
     <use xlink:href="#m43f6c7ab8f" x="448.993202" y="287.949738" style="fill: #481078; fill-opacity: 0.5; stroke: #481078; stroke-opacity: 0.5"/>
     <use xlink:href="#m43f6c7ab8f" x="451.188933" y="263.24456" style="fill: #481078; fill-opacity: 0.5; stroke: #481078; stroke-opacity: 0.5"/>
     <use xlink:href="#m43f6c7ab8f" x="453.384664" y="275.175685" style="fill: #481078; fill-opacity: 0.5; stroke: #481078; stroke-opacity: 0.5"/>
     <use xlink:href="#m43f6c7ab8f" x="455.580395" y="290.064265" style="fill: #481078; fill-opacity: 0.5; stroke: #481078; stroke-opacity: 0.5"/>
     <use xlink:href="#m43f6c7ab8f" x="457.776126" y="288.417448" style="fill: #481078; fill-opacity: 0.5; stroke: #481078; stroke-opacity: 0.5"/>
     <use xlink:href="#m43f6c7ab8f" x="459.971858" y="262.036703" style="fill: #481078; fill-opacity: 0.5; stroke: #481078; stroke-opacity: 0.5"/>
     <use xlink:href="#m43f6c7ab8f" x="462.167589" y="280.023858" style="fill: #481078; fill-opacity: 0.5; stroke: #481078; stroke-opacity: 0.5"/>
     <use xlink:href="#m43f6c7ab8f" x="464.36332" y="260.502205" style="fill: #481078; fill-opacity: 0.5; stroke: #481078; stroke-opacity: 0.5"/>
     <use xlink:href="#m43f6c7ab8f" x="466.559051" y="261.860842" style="fill: #481078; fill-opacity: 0.5; stroke: #481078; stroke-opacity: 0.5"/>
     <use xlink:href="#m43f6c7ab8f" x="468.754783" y="288.100301" style="fill: #481078; fill-opacity: 0.5; stroke: #481078; stroke-opacity: 0.5"/>
     <use xlink:href="#m43f6c7ab8f" x="470.950514" y="267.041777" style="fill: #481078; fill-opacity: 0.5; stroke: #481078; stroke-opacity: 0.5"/>
     <use xlink:href="#m43f6c7ab8f" x="473.146245" y="277.608895" style="fill: #481078; fill-opacity: 0.5; stroke: #481078; stroke-opacity: 0.5"/>
     <use xlink:href="#m43f6c7ab8f" x="475.341976" y="279.313603" style="fill: #481078; fill-opacity: 0.5; stroke: #481078; stroke-opacity: 0.5"/>
     <use xlink:href="#m43f6c7ab8f" x="477.537708" y="168.644197" style="fill: #481078; fill-opacity: 0.5; stroke: #481078; stroke-opacity: 0.5"/>
     <use xlink:href="#m43f6c7ab8f" x="479.733439" y="280.164142" style="fill: #481078; fill-opacity: 0.5; stroke: #481078; stroke-opacity: 0.5"/>
     <use xlink:href="#m43f6c7ab8f" x="481.92917" y="281.288642" style="fill: #481078; fill-opacity: 0.5; stroke: #481078; stroke-opacity: 0.5"/>
     <use xlink:href="#m43f6c7ab8f" x="484.124901" y="252.182116" style="fill: #481078; fill-opacity: 0.5; stroke: #481078; stroke-opacity: 0.5"/>
     <use xlink:href="#m43f6c7ab8f" x="486.320632" y="276.774642" style="fill: #481078; fill-opacity: 0.5; stroke: #481078; stroke-opacity: 0.5"/>
     <use xlink:href="#m43f6c7ab8f" x="488.516364" y="279.233175" style="fill: #481078; fill-opacity: 0.5; stroke: #481078; stroke-opacity: 0.5"/>
     <use xlink:href="#m43f6c7ab8f" x="490.712095" y="279.920961" style="fill: #481078; fill-opacity: 0.5; stroke: #481078; stroke-opacity: 0.5"/>
     <use xlink:href="#m43f6c7ab8f" x="492.907826" y="284.348081" style="fill: #481078; fill-opacity: 0.5; stroke: #481078; stroke-opacity: 0.5"/>
     <use xlink:href="#m43f6c7ab8f" x="495.103557" y="286.833325" style="fill: #481078; fill-opacity: 0.5; stroke: #481078; stroke-opacity: 0.5"/>
     <use xlink:href="#m43f6c7ab8f" x="497.299289" y="284.462914" style="fill: #481078; fill-opacity: 0.5; stroke: #481078; stroke-opacity: 0.5"/>
     <use xlink:href="#m43f6c7ab8f" x="499.49502" y="284.559873" style="fill: #481078; fill-opacity: 0.5; stroke: #481078; stroke-opacity: 0.5"/>
     <use xlink:href="#m43f6c7ab8f" x="501.690751" y="284.881978" style="fill: #481078; fill-opacity: 0.5; stroke: #481078; stroke-opacity: 0.5"/>
     <use xlink:href="#m43f6c7ab8f" x="503.886482" y="280.275131" style="fill: #481078; fill-opacity: 0.5; stroke: #481078; stroke-opacity: 0.5"/>
     <use xlink:href="#m43f6c7ab8f" x="506.082213" y="279.297387" style="fill: #481078; fill-opacity: 0.5; stroke: #481078; stroke-opacity: 0.5"/>
     <use xlink:href="#m43f6c7ab8f" x="508.277945" y="281.173975" style="fill: #481078; fill-opacity: 0.5; stroke: #481078; stroke-opacity: 0.5"/>
     <use xlink:href="#m43f6c7ab8f" x="510.473676" y="284.640932" style="fill: #481078; fill-opacity: 0.5; stroke: #481078; stroke-opacity: 0.5"/>
     <use xlink:href="#m43f6c7ab8f" x="512.669407" y="254.15297" style="fill: #481078; fill-opacity: 0.5; stroke: #481078; stroke-opacity: 0.5"/>
     <use xlink:href="#m43f6c7ab8f" x="514.865138" y="274.683284" style="fill: #481078; fill-opacity: 0.5; stroke: #481078; stroke-opacity: 0.5"/>
     <use xlink:href="#m43f6c7ab8f" x="517.06087" y="272.759437" style="fill: #481078; fill-opacity: 0.5; stroke: #481078; stroke-opacity: 0.5"/>
     <use xlink:href="#m43f6c7ab8f" x="519.256601" y="264.80068" style="fill: #481078; fill-opacity: 0.5; stroke: #481078; stroke-opacity: 0.5"/>
     <use xlink:href="#m43f6c7ab8f" x="521.452332" y="291.15866" style="fill: #481078; fill-opacity: 0.5; stroke: #481078; stroke-opacity: 0.5"/>
     <use xlink:href="#m43f6c7ab8f" x="523.648063" y="262.657951" style="fill: #481078; fill-opacity: 0.5; stroke: #481078; stroke-opacity: 0.5"/>
     <use xlink:href="#m43f6c7ab8f" x="525.843794" y="282.181245" style="fill: #481078; fill-opacity: 0.5; stroke: #481078; stroke-opacity: 0.5"/>
     <use xlink:href="#m43f6c7ab8f" x="528.039526" y="280.424081" style="fill: #481078; fill-opacity: 0.5; stroke: #481078; stroke-opacity: 0.5"/>
     <use xlink:href="#m43f6c7ab8f" x="530.235257" y="287.430565" style="fill: #481078; fill-opacity: 0.5; stroke: #481078; stroke-opacity: 0.5"/>
     <use xlink:href="#m43f6c7ab8f" x="532.430988" y="272.373427" style="fill: #481078; fill-opacity: 0.5; stroke: #481078; stroke-opacity: 0.5"/>
     <use xlink:href="#m43f6c7ab8f" x="534.626719" y="242.609649" style="fill: #481078; fill-opacity: 0.5; stroke: #481078; stroke-opacity: 0.5"/>
     <use xlink:href="#m43f6c7ab8f" x="536.822451" y="267.528896" style="fill: #481078; fill-opacity: 0.5; stroke: #481078; stroke-opacity: 0.5"/>
     <use xlink:href="#m43f6c7ab8f" x="539.018182" y="281.172051" style="fill: #481078; fill-opacity: 0.5; stroke: #481078; stroke-opacity: 0.5"/>
    </g>
   </g>
   <g id="patch_3">
    <path d="M 61.776 304.884 
L 61.776 14.256 
" style="fill: none; stroke: #262626; stroke-width: 1.25; stroke-linejoin: miter; stroke-linecap: square"/>
   </g>
   <g id="patch_4">
    <path d="M 561.744 304.884 
L 561.744 14.256 
" style="fill: none; stroke: #262626; stroke-width: 1.25; stroke-linejoin: miter; stroke-linecap: square"/>
   </g>
   <g id="patch_5">
    <path d="M 61.776 304.884 
L 561.744 304.884 
" style="fill: none; stroke: #262626; stroke-width: 1.25; stroke-linejoin: miter; stroke-linecap: square"/>
   </g>
   <g id="patch_6">
    <path d="M 61.776 14.256 
L 561.744 14.256 
" style="fill: none; stroke: #262626; stroke-width: 1.25; stroke-linejoin: miter; stroke-linecap: square"/>
   </g>
  </g>
 </g>
 <defs>
  <clipPath id="pf8ce50cfec">
   <rect x="61.776" y="14.256" width="499.968" height="290.628"/>
  </clipPath>
 </defs>
</svg>
